<svg width="101" height="147" viewBox="0 0 101 147" fill="none" xmlns="http://www.w3.org/2000/svg">
<path d="M57.3412 103.158C57.3412 92.0249 66.3661 83 77.4988 83V83C88.6315 83 97.6563 92.0248 97.6563 103.158V115.016C97.6563 116.784 96.2229 118.218 94.4547 118.218H60.5428C58.7746 118.218 57.3412 116.784 57.3412 115.016V103.158Z" fill="white"/>
<path d="M57.3412 103.158C57.3412 92.0249 66.3661 83 77.4988 83V83C88.6315 83 97.6563 92.0248 97.6563 103.158V115.016C97.6563 116.784 96.2229 118.218 94.4547 118.218H60.5428C58.7746 118.218 57.3412 116.784 57.3412 115.016V103.158Z" fill="url(#paint0_linear_60:3)"/>
<path d="M90.4738 98.2919C90.4738 105.074 84.9759 110.572 78.1939 110.572H77.2671C70.4851 110.572 64.9872 105.074 64.9872 98.2919V98.2919H90.4738V98.2919Z" fill="white"/>
<path d="M101 134.5C101 140.851 87.3367 146 70.4821 146C53.6275 146 64.3785 140.851 64.3785 134.5C64.3785 128.149 53.6275 123 70.4821 123C87.3367 123 101 128.149 101 134.5Z" fill="white"/>
<path d="M101 134.5C101 140.851 87.3367 146 70.4821 146C53.6275 146 64.3785 140.851 64.3785 134.5C64.3785 128.149 53.6275 123 70.4821 123C87.3367 123 101 128.149 101 134.5Z" fill="url(#paint1_linear_60:3)"/>
<ellipse cx="33.5" cy="102" rx="20.5" ry="19" fill="white"/>
<ellipse cx="33.5" cy="102" rx="20.5" ry="19" fill="url(#paint2_linear_60:3)"/>
<ellipse cx="33" cy="135.5" rx="30" ry="11.5" fill="white"/>
<ellipse cx="33" cy="135.5" rx="30" ry="11.5" fill="url(#paint3_linear_60:3)"/>
<path d="M52.9691 71L29.4447 43.1015V43.1015C21.7497 31.8375 34.2192 17.7685 46.3259 24.055L52.9691 27.5045L57.7323 24.5952C69.5057 17.4041 83.3848 30.0203 77.346 42.4242V42.4242C77.1271 42.8739 76.8509 43.2933 76.5244 43.6721L52.9691 71Z" fill="white"/>
<path d="M52.9691 71L29.4447 43.1015V43.1015C21.7497 31.8375 34.2192 17.7685 46.3259 24.055L52.9691 27.5045L57.7323 24.5952C69.5057 17.4041 83.3848 30.0203 77.346 42.4242V42.4242C77.1271 42.8739 76.8509 43.2933 76.5244 43.6721L52.9691 71Z" fill="url(#paint4_linear_60:3)"/>
<defs>
<linearGradient id="paint0_linear_60:3" x1="77.4988" y1="83" x2="77.4988" y2="118.218" gradientUnits="userSpaceOnUse">
<stop stop-color="white"/>
<stop offset="1" stop-color="white" stop-opacity="0"/>
</linearGradient>
<linearGradient id="paint1_linear_60:3" x1="81" y1="123" x2="81" y2="146" gradientUnits="userSpaceOnUse">
<stop stop-color="white"/>
<stop offset="1" stop-color="white" stop-opacity="0"/>
</linearGradient>
<linearGradient id="paint2_linear_60:3" x1="33.5" y1="83" x2="33.5" y2="121" gradientUnits="userSpaceOnUse">
<stop stop-color="white"/>
<stop offset="1" stop-color="white" stop-opacity="0"/>
</linearGradient>
<linearGradient id="paint3_linear_60:3" x1="33" y1="124" x2="33" y2="147" gradientUnits="userSpaceOnUse">
<stop stop-color="white"/>
<stop offset="1" stop-color="white" stop-opacity="0"/>
</linearGradient>
<linearGradient id="paint4_linear_60:3" x1="49" y1="71" x2="49" y2="0" gradientUnits="userSpaceOnUse">
<stop stop-color="white"/>
<stop offset="1" stop-color="white" stop-opacity="0"/>
</linearGradient>
</defs>
</svg>
