<svg width="104" height="116" viewBox="0 0 104 116" fill="none" xmlns="http://www.w3.org/2000/svg">
<ellipse cx="13.8272" cy="9.93827" rx="9.07407" ry="9.93827" fill="white"/>
<ellipse cx="13.8272" cy="9.93827" rx="9.07407" ry="9.93827" fill="url(#paint0_linear_61:127)"/>
<ellipse cx="13.8272" cy="28.9505" rx="13.8272" ry="6.04938" fill="white"/>
<ellipse cx="13.8272" cy="28.9505" rx="13.8272" ry="6.04938" fill="url(#paint1_linear_61:127)"/>
<ellipse cx="51.8272" cy="9.93827" rx="9.07407" ry="9.93827" fill="white"/>
<ellipse cx="51.8272" cy="9.93827" rx="9.07407" ry="9.93827" fill="url(#paint2_linear_61:127)"/>
<ellipse cx="51.8272" cy="28.9505" rx="13.8272" ry="6.04938" fill="white"/>
<ellipse cx="51.8272" cy="28.9505" rx="13.8272" ry="6.04938" fill="url(#paint3_linear_61:127)"/>
<ellipse cx="89.8272" cy="9.93827" rx="9.07407" ry="9.93827" fill="white"/>
<ellipse cx="89.8272" cy="9.93827" rx="9.07407" ry="9.93827" fill="url(#paint4_linear_61:127)"/>
<ellipse cx="89.8272" cy="28.9505" rx="13.8272" ry="6.04938" fill="white"/>
<ellipse cx="89.8272" cy="28.9505" rx="13.8272" ry="6.04938" fill="url(#paint5_linear_61:127)"/>
<path d="M55.3412 72.1576C55.3412 61.0249 64.3661 52 75.4988 52V52C86.6315 52 95.6563 61.0248 95.6563 72.1576V84.0162C95.6563 85.7844 94.2229 87.2178 92.4547 87.2178H58.5428C56.7746 87.2178 55.3412 85.7844 55.3412 84.0162V72.1576Z" fill="white"/>
<path d="M55.3412 72.1576C55.3412 61.0249 64.3661 52 75.4988 52V52C86.6315 52 95.6563 61.0248 95.6563 72.1576V84.0162C95.6563 85.7844 94.2229 87.2178 92.4547 87.2178H58.5428C56.7746 87.2178 55.3412 85.7844 55.3412 84.0162V72.1576Z" fill="url(#paint6_linear_61:127)"/>
<path d="M88.4738 67.2919C88.4738 74.0739 82.9759 79.5718 76.1939 79.5718H75.2671C68.4851 79.5718 62.9872 74.0739 62.9872 67.2919V67.2919H88.4738V67.2919Z" fill="white"/>
<path d="M99 103.5C99 109.851 85.3367 115 68.4821 115C51.6275 115 62.3785 109.851 62.3785 103.5C62.3785 97.1487 51.6275 92 68.4821 92C85.3367 92 99 97.1487 99 103.5Z" fill="white"/>
<path d="M99 103.5C99 109.851 85.3367 115 68.4821 115C51.6275 115 62.3785 109.851 62.3785 103.5C62.3785 97.1487 51.6275 92 68.4821 92C85.3367 92 99 97.1487 99 103.5Z" fill="url(#paint7_linear_61:127)"/>
<ellipse cx="31.5" cy="71" rx="20.5" ry="19" fill="white"/>
<ellipse cx="31.5" cy="71" rx="20.5" ry="19" fill="url(#paint8_linear_61:127)"/>
<ellipse cx="31" cy="104.5" rx="30" ry="11.5" fill="white"/>
<ellipse cx="31" cy="104.5" rx="30" ry="11.5" fill="url(#paint9_linear_61:127)"/>
<defs>
<linearGradient id="paint0_linear_61:127" x1="13.8272" y1="0" x2="13.8272" y2="19.8765" gradientUnits="userSpaceOnUse">
<stop stop-color="white"/>
<stop offset="1" stop-color="white" stop-opacity="0"/>
</linearGradient>
<linearGradient id="paint1_linear_61:127" x1="13.8272" y1="22.9011" x2="13.8272" y2="34.9999" gradientUnits="userSpaceOnUse">
<stop stop-color="white"/>
<stop offset="1" stop-color="white" stop-opacity="0"/>
</linearGradient>
<linearGradient id="paint2_linear_61:127" x1="51.8272" y1="0" x2="51.8272" y2="19.8765" gradientUnits="userSpaceOnUse">
<stop stop-color="white"/>
<stop offset="1" stop-color="white" stop-opacity="0"/>
</linearGradient>
<linearGradient id="paint3_linear_61:127" x1="51.8272" y1="22.9011" x2="51.8272" y2="34.9999" gradientUnits="userSpaceOnUse">
<stop stop-color="white"/>
<stop offset="1" stop-color="white" stop-opacity="0"/>
</linearGradient>
<linearGradient id="paint4_linear_61:127" x1="89.8272" y1="0" x2="89.8272" y2="19.8765" gradientUnits="userSpaceOnUse">
<stop stop-color="white"/>
<stop offset="1" stop-color="white" stop-opacity="0"/>
</linearGradient>
<linearGradient id="paint5_linear_61:127" x1="89.8272" y1="22.9011" x2="89.8272" y2="34.9999" gradientUnits="userSpaceOnUse">
<stop stop-color="white"/>
<stop offset="1" stop-color="white" stop-opacity="0"/>
</linearGradient>
<linearGradient id="paint6_linear_61:127" x1="75.4988" y1="52" x2="75.4988" y2="87.2178" gradientUnits="userSpaceOnUse">
<stop stop-color="white"/>
<stop offset="1" stop-color="white" stop-opacity="0"/>
</linearGradient>
<linearGradient id="paint7_linear_61:127" x1="79" y1="92" x2="79" y2="115" gradientUnits="userSpaceOnUse">
<stop stop-color="white"/>
<stop offset="1" stop-color="white" stop-opacity="0"/>
</linearGradient>
<linearGradient id="paint8_linear_61:127" x1="31.5" y1="52" x2="31.5" y2="90" gradientUnits="userSpaceOnUse">
<stop stop-color="white"/>
<stop offset="1" stop-color="white" stop-opacity="0"/>
</linearGradient>
<linearGradient id="paint9_linear_61:127" x1="31" y1="93" x2="31" y2="116" gradientUnits="userSpaceOnUse">
<stop stop-color="white"/>
<stop offset="1" stop-color="white" stop-opacity="0"/>
</linearGradient>
</defs>
</svg>
