<svg width="25" height="55" viewBox="0 0 25 55" fill="none" xmlns="http://www.w3.org/2000/svg">
<path d="M14.1478 0.864746H24.0096V10.7205H17.0068L14.1478 0.864746Z" fill="white"/>
<path d="M9.94897 2.32079L14.4356 0.766582L17.1722 10.718L16.277 11.562L9.94897 2.32079Z" fill="white"/>
<path d="M8.54452 3.38901L10.4496 2.18709L16.4577 11.5484L16.3892 18.6534L8.54452 3.38901Z" fill="white"/>
<path d="M5.87187 11.6643C5.87187 9.85162 6.35944 8.06227 7.28279 6.48636L8.96562 3.61423L16.4622 18.627L5.87187 18.6424L5.87187 11.6643Z" fill="white"/>
<path d="M8.50776 3.57445L9.66517 3.50884L5.80784 9.48079L7.08774 5.79242L8.50776 3.57445Z" fill="white"/>
<rect x="5.63086" y="18.6533" width="10.7583" height="36.2981" fill="white"/>
<rect x="0.699951" y="18.6535" width="5.37915" height="9.375" fill="white"/>
<path d="M16.3892 18.6533H23.8977L23.2253 28.0283H16.3892V18.6533Z" fill="white"/>
</svg>
