<svg width="115" height="115" viewBox="0 0 115 115" fill="none" xmlns="http://www.w3.org/2000/svg">
<path d="M59.5498 24.193H73.1532V37.788H63.4935L59.5498 24.193Z" fill="white"/>
<path d="M53.7581 26.2015L59.947 24.0576L63.7218 37.7846L62.487 38.9488L53.7581 26.2015Z" fill="white"/>
<path d="M51.8208 27.6749L54.4487 26.017L62.7363 38.93L62.6417 48.7307L51.8208 27.6749Z" fill="white"/>
<path d="M48.1341 38.039C48.1341 36.2263 48.6216 34.437 49.545 32.8611L52.4016 27.9856L62.7423 48.6943L48.1341 48.7155L48.1341 38.039Z" fill="white"/>
<path d="M51.7703 27.9307L53.3668 27.8402L48.046 36.078L49.8115 30.9902L51.7703 27.9307Z" fill="white"/>
<rect x="47.8018" y="48.7306" width="14.84" height="50.0697" fill="white"/>
<rect x="41" y="48.7308" width="7.42002" height="12.9319" fill="white"/>
<path d="M62.6416 48.7306H72.9989L72.0714 61.6625H62.6416V48.7306Z" fill="white"/>
<rect x="3.5" y="3.5" width="108" height="108" stroke="white" stroke-width="7"/>
</svg>
