<svg width="228" height="197" viewBox="0 0 228 197" fill="none" xmlns="http://www.w3.org/2000/svg">
<rect x="139.369" y="57.5186" width="39.4805" height="92.1778" fill="#3F059E" stroke="black"/>
<rect x="144.167" y="64.4434" width="6.11913" height="11.3224" fill="white"/>
<rect x="169.271" y="64.4434" width="6.11914" height="11.3224" fill="white"/>
<rect x="169.271" y="82.0767" width="6.11914" height="11.3224" fill="white"/>
<rect x="169.271" y="99.71" width="6.11914" height="11.3224" fill="white"/>
<rect x="169.271" y="117.343" width="6.11914" height="11.3224" fill="white"/>
<rect x="169.271" y="134.233" width="6.11914" height="11.3224" fill="white"/>
<rect x="144.167" y="82.0767" width="6.11913" height="11.3224" fill="white"/>
<rect x="144.167" y="99.71" width="6.11913" height="11.3224" fill="white"/>
<rect x="144.167" y="117.343" width="6.11913" height="11.3224" fill="white"/>
<rect x="144.167" y="134.976" width="6.11913" height="11.3224" fill="white"/>
<rect x="156.405" y="64.4434" width="6.74673" height="11.3224" fill="white"/>
<rect x="156.405" y="82.0767" width="6.74673" height="11.3224" fill="white"/>
<rect x="156.405" y="99.71" width="6.74673" height="11.3224" fill="white"/>
<rect x="156.405" y="117.343" width="6.74673" height="11.3224" fill="white"/>
<rect x="156.405" y="134.976" width="6.74673" height="11.3224" fill="white"/>
<rect x="52.4087" y="57.5186" width="39.4805" height="92.1778" fill="#3F059E" stroke="black"/>
<rect x="55.6743" y="64.4434" width="6.11913" height="11.3224" fill="white"/>
<rect x="80.7786" y="64.4434" width="6.11913" height="11.3224" fill="white"/>
<rect x="80.7786" y="82.0767" width="6.11913" height="11.3224" fill="white"/>
<rect x="80.7786" y="99.71" width="6.11913" height="11.3224" fill="white"/>
<rect x="80.7786" y="117.343" width="6.11913" height="11.3224" fill="white"/>
<rect x="80.7786" y="134.233" width="6.11913" height="11.3224" fill="white"/>
<rect x="55.6743" y="82.0767" width="6.11913" height="11.3224" fill="white"/>
<rect x="55.6743" y="99.71" width="6.11913" height="11.3224" fill="white"/>
<rect x="55.6743" y="117.343" width="6.11913" height="11.3224" fill="white"/>
<rect x="55.6743" y="134.976" width="6.11913" height="11.3224" fill="white"/>
<rect x="67.9128" y="64.4434" width="6.74674" height="11.3224" fill="white"/>
<rect x="67.9128" y="82.0767" width="6.74674" height="11.3224" fill="white"/>
<rect x="67.9128" y="99.71" width="6.74674" height="11.3224" fill="white"/>
<rect x="67.9128" y="117.343" width="6.74674" height="11.3224" fill="white"/>
<rect x="67.9128" y="134.976" width="6.74674" height="11.3224" fill="white"/>
<rect x="90.6929" y="39.6992" width="49.9928" height="109.997" fill="#3F059E" stroke="black"/>
<rect x="94.5212" y="43.8809" width="10.4052" height="12.9931" fill="white"/>
<rect x="110.708" y="43.8809" width="10.1162" height="12.9931" fill="white"/>
<rect x="126.604" y="43.8809" width="10.1162" height="12.9931" fill="white"/>
<rect x="94.5212" y="63.3701" width="10.4052" height="13.3351" fill="white"/>
<rect x="110.708" y="63.3701" width="10.1162" height="13.3351" fill="white"/>
<rect x="126.604" y="63.3701" width="10.1162" height="13.3351" fill="white"/>
<rect x="94.5212" y="83.2021" width="10.4052" height="13.3351" fill="white"/>
<rect x="110.708" y="83.2021" width="10.1162" height="13.3351" fill="white"/>
<rect x="126.604" y="83.2021" width="10.1162" height="13.3351" fill="white"/>
<rect x="94.5212" y="102.691" width="10.4052" height="13.3351" fill="white"/>
<rect x="110.708" y="102.691" width="10.1162" height="13.3351" fill="white"/>
<rect x="126.604" y="102.691" width="10.1162" height="13.3351" fill="white"/>
<rect x="94.5212" y="122.182" width="10.4052" height="12.9931" fill="white"/>
<rect x="110.708" y="122.182" width="10.1162" height="12.9931" fill="white"/>
<rect x="126.604" y="122.182" width="10.1162" height="12.9931" fill="white"/>
<rect x="107.817" y="142.697" width="15.8969" height="5.81273" fill="white"/>
<path d="M77.2304 183.131C80.3898 183.033 82.986 184.262 83.0292 185.875C83.0723 187.488 80.546 188.876 77.3865 188.974C74.2271 189.072 66.8056 187.993 66.7625 186.38C66.7194 184.766 74.0709 183.229 77.2304 183.131Z" fill="#02EC19"/>
<path d="M77.2304 183.131C80.3898 183.033 82.986 184.262 83.0292 185.875C83.0723 187.488 80.546 188.876 77.3865 188.974C74.2271 189.072 66.8056 187.993 66.7625 186.38C66.7194 184.766 74.0709 183.229 77.2304 183.131Z" fill="url(#paint0_linear_64:0)"/>
<path d="M81.293 175.807C83.23 178.498 83.8407 181.481 82.6571 182.47C81.4735 183.459 78.9438 182.079 77.0068 179.388C75.0698 176.698 71.5008 169.605 72.6844 168.616C73.868 167.627 79.356 173.116 81.293 175.807Z" fill="#02EC19"/>
<path d="M81.293 175.807C83.23 178.498 83.8407 181.481 82.6571 182.47C81.4735 183.459 78.9438 182.079 77.0068 179.388C75.0698 176.698 71.5008 169.605 72.6844 168.616C73.868 167.627 79.356 173.116 81.293 175.807Z" fill="url(#paint1_linear_64:0)"/>
<path d="M58.1357 174.105C61.2313 174.793 63.4954 176.633 63.1927 178.214C62.89 179.796 60.1351 180.519 57.0395 179.831C53.944 179.142 46.9522 176.251 47.2549 174.67C47.5576 173.089 55.0401 173.416 58.1357 174.105Z" fill="#02EC19"/>
<path d="M58.1357 174.105C61.2313 174.793 63.4954 176.633 63.1927 178.214C62.89 179.796 60.1351 180.519 57.0395 179.831C53.944 179.142 46.9522 176.251 47.2549 174.67C47.5576 173.089 55.0401 173.416 58.1357 174.105Z" fill="url(#paint2_linear_64:0)"/>
<path d="M63.657 167.988C64.9661 171.087 64.9223 174.142 63.5591 174.81C62.1959 175.479 60.0296 173.508 58.7205 170.409C57.4114 167.309 55.4559 159.522 56.8191 158.853C58.1823 158.185 62.3479 164.889 63.657 167.988Z" fill="#02EC19"/>
<path d="M63.657 167.988C64.9661 171.087 64.9223 174.142 63.5591 174.81C62.1959 175.479 60.0296 173.508 58.7205 170.409C57.4114 167.309 55.4559 159.522 56.8191 158.853C58.1823 158.185 62.3479 164.889 63.657 167.988Z" fill="url(#paint3_linear_64:0)"/>
<path d="M40.1376 156.541C43.0277 157.92 44.8789 160.234 44.2724 161.71C43.666 163.185 40.8315 163.264 37.9415 161.885C35.0515 160.506 28.7865 156.086 29.393 154.611C29.9994 153.135 37.2476 155.162 40.1376 156.541Z" fill="#02EC19"/>
<path d="M40.1376 156.541C43.0277 157.92 44.8789 160.234 44.2724 161.71C43.666 163.185 40.8315 163.264 37.9415 161.885C35.0515 160.506 28.7865 156.086 29.393 154.611C29.9994 153.135 37.2476 155.162 40.1376 156.541Z" fill="url(#paint4_linear_64:0)"/>
<path d="M46.7348 151.82C47.4056 155.148 46.763 158.123 45.2994 158.465C43.8359 158.808 42.1057 156.388 41.4349 153.061C40.7641 149.733 40.3822 141.676 41.8458 141.333C43.3093 140.991 46.064 148.493 46.7348 151.82Z" fill="#02EC19"/>
<path d="M46.7348 151.82C47.4056 155.148 46.763 158.123 45.2994 158.465C43.8359 158.808 42.1057 156.388 41.4349 153.061C40.7641 149.733 40.3822 141.676 41.8458 141.333C43.3093 140.991 46.064 148.493 46.7348 151.82Z" fill="url(#paint5_linear_64:0)"/>
<path d="M26.0936 137.926C28.6221 139.969 29.9432 142.672 29.0443 143.962C28.1454 145.253 25.367 144.643 22.8385 142.6C20.3101 140.557 15.1274 134.734 16.0262 133.443C16.9251 132.152 23.5651 135.883 26.0936 137.926Z" fill="#02EC19"/>
<path d="M26.0936 137.926C28.6221 139.969 29.9432 142.672 29.0443 143.962C28.1454 145.253 25.367 144.643 22.8385 142.6C20.3101 140.557 15.1274 134.734 16.0262 133.443C16.9251 132.152 23.5651 135.883 26.0936 137.926Z" fill="url(#paint6_linear_64:0)"/>
<path d="M33.5057 134.921C33.4653 138.326 32.2187 141.069 30.7212 141.049C29.2238 141.028 28.0426 138.251 28.083 134.846C28.1233 131.441 29.4317 123.498 30.9292 123.519C32.4266 123.539 33.5461 131.516 33.5057 134.921Z" fill="#02EC19"/>
<path d="M33.5057 134.921C33.4653 138.326 32.2187 141.069 30.7212 141.049C29.2238 141.028 28.0426 138.251 28.083 134.846C28.1233 131.441 29.4317 123.498 30.9292 123.519C32.4266 123.539 33.5461 131.516 33.5057 134.921Z" fill="url(#paint7_linear_64:0)"/>
<path d="M16.9172 117.092C18.857 119.78 19.4706 122.762 18.2877 123.753C17.1049 124.743 14.5736 123.366 12.6338 120.678C10.6941 117.989 7.11805 110.901 8.30089 109.911C9.48372 108.92 14.9775 114.403 16.9172 117.092Z" fill="#02EC19"/>
<path d="M16.9172 117.092C18.857 119.78 19.4706 122.762 18.2877 123.753C17.1049 124.743 14.5736 123.366 12.6338 120.678C10.6941 117.989 7.11805 110.901 8.30089 109.911C9.48372 108.92 14.9775 114.403 16.9172 117.092Z" fill="url(#paint8_linear_64:0)"/>
<path d="M24.8022 116.296C23.9311 119.569 22.0577 121.862 20.6179 121.418C19.1781 120.973 18.7171 117.959 19.5883 114.685C20.4594 111.412 23.6633 104.12 25.1031 104.565C26.5428 105.01 25.6734 113.023 24.8022 116.296Z" fill="#02EC19"/>
<path d="M24.8022 116.296C23.9311 119.569 22.0577 121.862 20.6179 121.418C19.1781 120.973 18.7171 117.959 19.5883 114.685C20.4594 111.412 23.6633 104.12 25.1031 104.565C26.5428 105.01 25.6734 113.023 24.8022 116.296Z" fill="url(#paint9_linear_64:0)"/>
<path d="M14.4129 94.8446C15.4862 98.0475 15.214 101.088 13.8051 101.636C12.3962 102.184 10.384 100.032 9.31081 96.8289C8.23759 93.626 6.87067 85.6939 8.27958 85.1459C9.6885 84.598 13.3397 91.6418 14.4129 94.8446Z" fill="#02EC19"/>
<path d="M14.4129 94.8446C15.4862 98.0475 15.214 101.088 13.8051 101.636C12.3962 102.184 10.384 100.032 9.31081 96.8289C8.23759 93.626 6.87067 85.6939 8.27958 85.1459C9.6885 84.598 13.3397 91.6418 14.4129 94.8446Z" fill="url(#paint10_linear_64:0)"/>
<path d="M22.1405 96.7158C20.3726 99.5385 17.9329 101.095 16.6912 100.192C15.4496 99.2897 15.8762 96.2698 17.6441 93.4471C19.412 90.6244 24.5517 84.7571 25.7934 85.6597C27.035 86.5623 23.9084 93.8932 22.1405 96.7158Z" fill="#02EC19"/>
<path d="M22.1405 96.7158C20.3726 99.5385 17.9329 101.095 16.6912 100.192C15.4496 99.2897 15.8762 96.2698 17.6441 93.4471C19.412 90.6244 24.5517 84.7571 25.7934 85.6597C27.035 86.5623 23.9084 93.8932 22.1405 96.7158Z" fill="url(#paint11_linear_64:0)"/>
<path d="M18.5952 73.0888C19.0595 76.4571 18.2347 79.3797 16.753 79.6168C15.2713 79.8538 13.6938 77.3155 13.2295 73.9473C12.7652 70.579 12.8808 62.5122 14.3626 62.2752C15.8443 62.0382 18.1309 69.7206 18.5952 73.0888Z" fill="#02EC19"/>
<path d="M18.5952 73.0888C19.0595 76.4571 18.2347 79.3797 16.753 79.6168C15.2713 79.8538 13.6938 77.3155 13.2295 73.9473C12.7652 70.579 12.8808 62.5122 14.3626 62.2752C15.8443 62.0382 18.1309 69.7206 18.5952 73.0888Z" fill="url(#paint12_linear_64:0)"/>
<path d="M25.8264 76.569C23.5755 78.9595 20.8983 79.9656 19.8468 78.8164C18.7953 77.6671 19.7676 74.7976 22.0185 72.4072C24.2695 70.0168 30.3844 65.3598 31.4359 66.5091C32.4875 67.6583 28.0774 74.1786 25.8264 76.569Z" fill="#02EC19"/>
<path d="M25.8264 76.569C23.5755 78.9595 20.8983 79.9656 19.8468 78.8164C18.7953 77.6671 19.7676 74.7976 22.0185 72.4072C24.2695 70.0168 30.3844 65.3598 31.4359 66.5091C32.4875 67.6583 28.0774 74.1786 25.8264 76.569Z" fill="url(#paint13_linear_64:0)"/>
<path d="M29.2112 52.3089C28.811 55.6868 27.2813 58.2596 25.7946 58.0554C24.3079 57.8512 23.4271 54.9472 23.8273 51.5693C24.2275 48.1913 26.3683 40.4595 27.8551 40.6637C29.3418 40.868 29.6114 48.9309 29.2112 52.3089Z" fill="#02EC19"/>
<path d="M29.2112 52.3089C28.811 55.6868 27.2813 58.2596 25.7946 58.0554C24.3079 57.8512 23.4271 54.9472 23.8273 51.5693C24.2275 48.1913 26.3683 40.4595 27.8551 40.6637C29.3418 40.868 29.6114 48.9309 29.2112 52.3089Z" fill="url(#paint14_linear_64:0)"/>
<path d="M35.294 57.7711C32.5258 59.4144 29.6956 59.601 28.9727 58.1878C28.2497 56.7745 29.9077 54.2967 32.676 52.6533C35.4442 51.01 42.5021 48.3136 43.225 49.7269C43.948 51.1401 38.0622 56.1277 35.294 57.7711Z" fill="#02EC19"/>
<path d="M35.294 57.7711C32.5258 59.4144 29.6956 59.601 28.9727 58.1878C28.2497 56.7745 29.9077 54.2967 32.676 52.6533C35.4442 51.01 42.5021 48.3136 43.225 49.7269C43.948 51.1401 38.0622 56.1277 35.294 57.7711Z" fill="url(#paint15_linear_64:0)"/>
<path d="M45.4056 34.7778C44.2731 37.957 42.2212 40.0656 40.8224 39.4875C39.4236 38.9094 39.2077 35.8636 40.3402 32.6844C41.4726 29.5053 45.254 22.5413 46.6528 23.1194C48.0516 23.6974 46.538 31.5986 45.4056 34.7778Z" fill="#02EC19"/>
<path d="M45.4056 34.7778C44.2731 37.957 42.2212 40.0656 40.8224 39.4875C39.4236 38.9094 39.2077 35.8636 40.3402 32.6844C41.4726 29.5053 45.254 22.5413 46.6528 23.1194C48.0516 23.6974 46.538 31.5986 45.4056 34.7778Z" fill="url(#paint16_linear_64:0)"/>
<path d="M50.1141 41.6379C47.0632 42.5275 44.2727 41.986 43.8814 40.4286C43.49 38.8711 45.646 36.8875 48.6968 35.9979C51.7477 35.1084 59.1976 34.2913 59.589 35.8487C59.9803 37.4062 53.1649 40.7484 50.1141 41.6379Z" fill="#02EC19"/>
<path d="M50.1141 41.6379C47.0632 42.5275 44.2727 41.986 43.8814 40.4286C43.49 38.8711 45.646 36.8875 48.6968 35.9979C51.7477 35.1084 59.1976 34.2913 59.589 35.8487C59.9803 37.4062 53.1649 40.7484 50.1141 41.6379Z" fill="url(#paint17_linear_64:0)"/>
<path d="M64.2497 27.1616C61.8075 28.1077 59.4904 27.8639 59.0742 26.617C58.658 25.3701 60.3004 23.5923 62.7426 22.6462C65.1847 21.7001 71.2317 20.499 71.6478 21.7459C72.064 22.9928 66.6918 26.2155 64.2497 27.1616Z" fill="#02EC19"/>
<path d="M64.2497 27.1616C61.8075 28.1077 59.4904 27.8639 59.0742 26.617C58.658 25.3701 60.3004 23.5923 62.7426 22.6462C65.1847 21.7001 71.2317 20.499 71.6478 21.7459C72.064 22.9928 66.6918 26.2155 64.2497 27.1616Z" fill="url(#paint18_linear_64:0)"/>
<path d="M154.848 183.207C151.687 183.255 149.142 184.603 149.163 186.218C149.184 187.832 151.764 189.102 154.924 189.054C158.085 189.006 165.457 187.585 165.436 185.971C165.415 184.356 158.009 183.159 154.848 183.207Z" fill="#02EC19"/>
<path d="M154.848 183.207C151.687 183.255 149.142 184.603 149.163 186.218C149.184 187.832 151.764 189.102 154.924 189.054C158.085 189.006 165.457 187.585 165.436 185.971C165.415 184.356 158.009 183.159 154.848 183.207Z" fill="url(#paint19_linear_64:0)"/>
<path d="M150.495 176.081C148.667 178.859 148.177 181.868 149.399 182.801C150.621 183.734 153.093 182.238 154.92 179.46C156.748 176.681 160.029 169.429 158.807 168.496C157.585 167.563 152.322 173.303 150.495 176.081Z" fill="#02EC19"/>
<path d="M150.495 176.081C148.667 178.859 148.177 181.868 149.399 182.801C150.621 183.734 153.093 182.238 154.92 179.46C156.748 176.681 160.029 169.429 158.807 168.496C157.585 167.563 152.322 173.303 150.495 176.081Z" fill="url(#paint20_linear_64:0)"/>
<path d="M173.561 173.304C170.496 174.136 168.308 176.079 168.674 177.645C169.04 179.21 171.821 179.805 174.886 178.973C177.951 178.141 184.82 174.927 184.455 173.361C184.089 171.796 176.626 172.472 173.561 173.304Z" fill="#02EC19"/>
<path d="M173.561 173.304C170.496 174.136 168.308 176.079 168.674 177.645C169.04 179.21 171.821 179.805 174.886 178.973C177.951 178.141 184.82 174.927 184.455 173.361C184.089 171.796 176.626 172.472 173.561 173.304Z" fill="url(#paint21_linear_64:0)"/>
<path d="M167.8 167.449C166.617 170.607 166.783 173.656 168.171 174.26C169.56 174.865 171.645 172.795 172.829 169.638C174.013 166.481 175.654 158.609 174.266 158.005C172.877 157.4 168.984 164.292 167.8 167.449Z" fill="#02EC19"/>
<path d="M167.8 167.449C166.617 170.607 166.783 173.656 168.171 174.26C169.56 174.865 171.645 172.795 172.829 169.638C174.013 166.481 175.654 158.609 174.266 158.005C172.877 157.4 168.984 164.292 167.8 167.449Z" fill="url(#paint22_linear_64:0)"/>
<path d="M190.839 154.919C188.007 156.431 186.25 158.829 186.915 160.275C187.58 161.721 190.415 161.667 193.247 160.155C196.079 158.643 202.161 153.936 201.496 152.49C200.831 151.044 193.67 153.406 190.839 154.919Z" fill="#02EC19"/>
<path d="M190.839 154.919C188.007 156.431 186.25 158.829 186.915 160.275C187.58 161.721 190.415 161.667 193.247 160.155C196.079 158.643 202.161 153.936 201.496 152.49C200.831 151.044 193.67 153.406 190.839 154.919Z" fill="url(#paint23_linear_64:0)"/>
<path d="M184.058 150.509C183.521 153.864 184.282 156.807 185.758 157.081C187.234 157.355 188.866 154.857 189.403 151.501C189.939 148.145 189.998 140.078 188.522 139.804C187.046 139.53 184.595 147.153 184.058 150.509Z" fill="#02EC19"/>
<path d="M184.058 150.509C183.521 153.864 184.282 156.807 185.758 157.081C187.234 157.355 188.866 154.857 189.403 151.501C189.939 148.145 189.998 140.078 188.522 139.804C187.046 139.53 184.595 147.153 184.058 150.509Z" fill="url(#paint24_linear_64:0)"/>
<path d="M204.123 135.667C201.679 137.826 200.468 140.588 201.417 141.836C202.367 143.083 205.119 142.345 207.563 140.186C210.007 138.027 214.951 131.968 214.002 130.72C213.052 129.472 206.568 133.508 204.123 135.667Z" fill="#02EC19"/>
<path d="M204.123 135.667C201.679 137.826 200.468 140.588 201.417 141.836C202.367 143.083 205.119 142.345 207.563 140.186C210.007 138.027 214.951 131.968 214.002 130.72C213.052 129.472 206.568 133.508 204.123 135.667Z" fill="url(#paint25_linear_64:0)"/>
<path d="M196.598 133.01C196.775 136.41 198.13 139.093 199.625 139.003C201.121 138.912 202.189 136.083 202.013 132.683C201.836 129.284 200.21 121.409 198.715 121.499C197.22 121.589 196.421 129.611 196.598 133.01Z" fill="#02EC19"/>
<path d="M196.598 133.01C196.775 136.41 198.13 139.093 199.625 139.003C201.121 138.912 202.189 136.083 202.013 132.683C201.836 129.284 200.21 121.409 198.715 121.499C197.22 121.589 196.421 129.611 196.598 133.01Z" fill="url(#paint26_linear_64:0)"/>
<path d="M212.456 114.426C210.626 117.202 210.132 120.21 211.353 121.144C212.575 122.078 215.049 120.585 216.879 117.809C218.709 115.033 221.998 107.785 220.776 106.85C219.555 105.916 214.286 111.649 212.456 114.426Z" fill="#02EC19"/>
<path d="M212.456 114.426C210.626 117.202 210.132 120.21 211.353 121.144C212.575 122.078 215.049 120.585 216.879 117.809C218.709 115.033 221.998 107.785 220.776 106.85C219.555 105.916 214.286 111.649 212.456 114.426Z" fill="url(#paint27_linear_64:0)"/>
<path d="M204.546 113.998C205.548 117.228 207.511 119.431 208.932 118.92C210.352 118.408 210.692 115.376 209.691 112.146C208.689 108.916 205.196 101.78 203.775 102.292C202.355 102.803 203.545 110.768 204.546 113.998Z" fill="#02EC19"/>
<path d="M204.546 113.998C205.548 117.228 207.511 119.431 208.932 118.92C210.352 118.408 210.692 115.376 209.691 112.146C208.689 108.916 205.196 101.78 203.775 102.292C202.355 102.803 203.545 110.768 204.546 113.998Z" fill="url(#paint28_linear_64:0)"/>
<path d="M214.066 92.0833C213.122 95.3331 213.516 98.3582 214.945 98.8401C216.375 99.322 218.299 97.0782 219.243 93.8284C220.187 90.5786 221.234 82.5903 219.805 82.1084C218.375 81.6265 215.01 88.8336 214.066 92.0833Z" fill="#02EC19"/>
<path d="M214.066 92.0833C213.122 95.3331 213.516 98.3582 214.945 98.8401C216.375 99.322 218.299 97.0782 219.243 93.8284C220.187 90.5786 221.234 82.5903 219.805 82.1084C218.375 81.6265 215.01 88.8336 214.066 92.0833Z" fill="url(#paint29_linear_64:0)"/>
<path d="M206.421 94.313C208.3 97.0508 210.8 98.4923 212.004 97.5327C213.208 96.5732 212.661 93.5759 210.782 90.8381C208.902 88.1004 203.532 82.4776 202.328 83.4371C201.124 84.3967 204.541 91.5753 206.421 94.313Z" fill="#02EC19"/>
<path d="M206.421 94.313C208.3 97.0508 210.8 98.4923 212.004 97.5327C213.208 96.5732 212.661 93.5759 210.782 90.8381C208.902 88.1004 203.532 82.4776 202.328 83.4371C201.124 84.3967 204.541 91.5753 206.421 94.313Z" fill="url(#paint30_linear_64:0)"/>
<path d="M209.883 70.1012C209.554 73.4879 210.495 76.3695 211.985 76.5373C213.475 76.7052 214.949 74.0958 215.278 70.7091C215.607 67.3224 215.168 59.2685 213.678 59.1006C212.188 58.9328 210.211 66.7145 209.883 70.1012Z" fill="#02EC19"/>
<path d="M209.883 70.1012C209.554 73.4879 210.495 76.3695 211.985 76.5373C213.475 76.7052 214.949 74.0958 215.278 70.7091C215.607 67.3224 215.168 59.2685 213.678 59.1006C212.188 58.9328 210.211 66.7145 209.883 70.1012Z" fill="url(#paint31_linear_64:0)"/>
<path d="M202.797 73.9146C205.142 76.1981 207.857 77.0788 208.862 75.8817C209.866 74.6846 208.78 71.863 206.435 69.5796C204.09 67.2961 197.794 62.928 196.79 64.1251C195.785 65.3222 200.453 71.6312 202.797 73.9146Z" fill="#02EC19"/>
<path d="M202.797 73.9146C205.142 76.1981 207.857 77.0788 208.862 75.8817C209.866 74.6846 208.78 71.863 206.435 69.5796C204.09 67.2961 197.794 62.928 196.79 64.1251C195.785 65.3222 200.453 71.6312 202.797 73.9146Z" fill="url(#paint32_linear_64:0)"/>
<path d="M198.443 49.8334C198.979 53.1896 200.61 55.6888 202.087 55.4156C203.564 55.1425 204.328 52.2003 203.792 48.8442C203.257 45.488 200.808 37.863 199.331 38.1362C197.854 38.4094 197.908 46.4772 198.443 49.8334Z" fill="#02EC19"/>
<path d="M198.443 49.8334C198.979 53.1896 200.61 55.6888 202.087 55.4156C203.564 55.1425 204.328 52.2003 203.792 48.8442C203.257 45.488 200.808 37.863 199.331 38.1362C197.854 38.4094 197.908 46.4772 198.443 49.8334Z" fill="url(#paint33_linear_64:0)"/>
<path d="M192.585 55.5741C195.416 57.0872 198.251 57.1419 198.917 55.6964C199.583 54.2509 197.827 51.8525 194.995 50.3395C192.164 48.8264 185.005 46.4609 184.339 47.9064C183.673 49.3519 189.753 54.0611 192.585 55.5741Z" fill="#02EC19"/>
<path d="M192.585 55.5741C195.416 57.0872 198.251 57.1419 198.917 55.6964C199.583 54.2509 197.827 51.8525 194.995 50.3395C192.164 48.8264 185.005 46.4609 184.339 47.9064C183.673 49.3519 189.753 54.0611 192.585 55.5741Z" fill="url(#paint34_linear_64:0)"/>
<path d="M183.065 30.3929C184.892 33.1721 187.363 34.6692 188.585 33.7367C189.808 32.8043 189.318 29.7953 187.492 27.0161C185.666 24.2369 180.406 18.4952 179.183 19.4277C177.961 20.3602 181.239 27.6137 183.065 30.3929Z" fill="#02EC19"/>
<path d="M183.065 30.3929C184.892 33.1721 187.363 34.6692 188.585 33.7367C189.808 32.8043 189.318 29.7953 187.492 27.0161C185.666 24.2369 180.406 18.4952 179.183 19.4277C177.961 20.3602 181.239 27.6137 183.065 30.3929Z" fill="url(#paint35_linear_64:0)"/>
<path d="M180.074 38.2943C183.234 38.3443 185.814 37.0763 185.836 35.4621C185.858 33.848 183.314 32.4989 180.153 32.449C176.993 32.399 169.586 33.5908 169.564 35.2049C169.542 36.8191 176.913 38.2444 180.074 38.2943Z" fill="#02EC19"/>
<path d="M180.074 38.2943C183.234 38.3443 185.814 37.0763 185.836 35.4621C185.858 33.848 183.314 32.4989 180.153 32.449C176.993 32.399 169.586 33.5908 169.564 35.2049C169.542 36.8191 176.913 38.2444 180.074 38.2943Z" fill="url(#paint36_linear_64:0)"/>
<path d="M162.343 28.3628C164.872 28.9932 167.146 28.4578 167.424 27.1668C167.701 25.8759 165.876 24.3183 163.348 23.6879C160.819 23.0574 154.683 22.63 154.406 23.9209C154.128 25.2119 159.815 27.7323 162.343 28.3628Z" fill="#02EC19"/>
<path d="M162.343 28.3628C164.872 28.9932 167.146 28.4578 167.424 27.1668C167.701 25.8759 165.876 24.3183 163.348 23.6879C160.819 23.0574 154.683 22.63 154.406 23.9209C154.128 25.2119 159.815 27.7323 162.343 28.3628Z" fill="url(#paint37_linear_64:0)"/>
<path d="M83.7906 0.810293L86.0035 7.63277L86.0595 7.80563H86.2413H93.4036L87.6088 12.0231L87.4621 12.1299L87.5181 12.3024L89.7313 19.1258L83.9377 14.9091L83.7906 14.8021L83.6435 14.9091L77.8499 19.1258L80.0631 12.3024L80.119 12.1299L79.9724 12.0231L74.1776 7.80563H81.3399H81.5216L81.5777 7.63277L83.7906 0.810293Z" fill="#FBFF1F" stroke="black" stroke-width="0.5"/>
<path d="M115.388 0.797662L117.644 7.63399L117.701 7.80563H117.882H125.172L119.277 12.0219L119.128 12.1289L119.185 12.3036L121.439 19.1321L115.533 14.9079L115.388 14.8039L115.242 14.9079L109.337 19.1321L111.59 12.3036L111.648 12.1289L111.498 12.0219L105.604 7.80563H112.894H113.075L113.132 7.63399L115.388 0.797662Z" fill="#FBFF1F" stroke="black" stroke-width="0.5"/>
<path d="M147.56 0.797663L149.816 7.63399L149.873 7.80563H150.054H157.344L151.45 12.0219L151.3 12.1289L151.358 12.3036L153.611 19.1321L147.706 14.9079L147.56 14.8039L147.415 14.9079L141.509 19.1321L143.763 12.3036L143.82 12.1289L143.671 12.0219L137.776 7.80563H145.067H145.247L145.304 7.63399L147.56 0.797663Z" fill="#FBFF1F" stroke="black" stroke-width="0.5"/>
<ellipse cx="93.1741" cy="182.794" rx="4.97903" ry="5.36414" fill="#00BC13"/>
<ellipse cx="139.517" cy="182.794" rx="4.97903" ry="5.36415" fill="#00BC13"/>
<ellipse cx="116.154" cy="184.032" rx="11.4901" ry="12.3788" fill="#00BC13"/>
<defs>
<linearGradient id="paint0_linear_64:0" x1="66.7625" y1="186.38" x2="83.031" y2="185.945" gradientUnits="userSpaceOnUse">
<stop stop-color="#414141"/>
<stop offset="1" stop-color="white" stop-opacity="0"/>
</linearGradient>
<linearGradient id="paint1_linear_64:0" x1="72.6844" y1="168.616" x2="83.6011" y2="181.681" gradientUnits="userSpaceOnUse">
<stop stop-color="#414141"/>
<stop offset="1" stop-color="white" stop-opacity="0"/>
</linearGradient>
<linearGradient id="paint2_linear_64:0" x1="47.2549" y1="174.67" x2="63.2838" y2="177.738" gradientUnits="userSpaceOnUse">
<stop stop-color="#414141"/>
<stop offset="1" stop-color="white" stop-opacity="0"/>
</linearGradient>
<linearGradient id="paint3_linear_64:0" x1="56.8191" y1="158.853" x2="64.4337" y2="174.381" gradientUnits="userSpaceOnUse">
<stop stop-color="#414141"/>
<stop offset="1" stop-color="white" stop-opacity="0"/>
</linearGradient>
<linearGradient id="paint4_linear_64:0" x1="29.393" y1="154.611" x2="44.6185" y2="160.867" gradientUnits="userSpaceOnUse">
<stop stop-color="#414141"/>
<stop offset="1" stop-color="white" stop-opacity="0"/>
</linearGradient>
<linearGradient id="paint5_linear_64:0" x1="41.8458" y1="141.333" x2="45.8266" y2="158.342" gradientUnits="userSpaceOnUse">
<stop stop-color="#414141"/>
<stop offset="1" stop-color="white" stop-opacity="0"/>
</linearGradient>
<linearGradient id="paint6_linear_64:0" x1="16.0262" y1="133.443" x2="29.7262" y2="142.983" gradientUnits="userSpaceOnUse">
<stop stop-color="#414141"/>
<stop offset="1" stop-color="white" stop-opacity="0"/>
</linearGradient>
<linearGradient id="paint7_linear_64:0" x1="30.9292" y1="123.519" x2="30.6877" y2="141.048" gradientUnits="userSpaceOnUse">
<stop stop-color="#414141"/>
<stop offset="1" stop-color="white" stop-opacity="0"/>
</linearGradient>
<linearGradient id="paint8_linear_64:0" x1="8.30089" y1="109.911" x2="19.229" y2="122.965" gradientUnits="userSpaceOnUse">
<stop stop-color="#414141"/>
<stop offset="1" stop-color="white" stop-opacity="0"/>
</linearGradient>
<linearGradient id="paint9_linear_64:0" x1="25.1031" y1="104.565" x2="19.9595" y2="121.214" gradientUnits="userSpaceOnUse">
<stop stop-color="#414141"/>
<stop offset="1" stop-color="white" stop-opacity="0"/>
</linearGradient>
<linearGradient id="paint10_linear_64:0" x1="8.27958" y1="85.1459" x2="14.5761" y2="101.336" gradientUnits="userSpaceOnUse">
<stop stop-color="#414141"/>
<stop offset="1" stop-color="white" stop-opacity="0"/>
</linearGradient>
<linearGradient id="paint11_linear_64:0" x1="25.7934" y1="85.6597" x2="15.7344" y2="99.4968" gradientUnits="userSpaceOnUse">
<stop stop-color="#414141"/>
<stop offset="1" stop-color="white" stop-opacity="0"/>
</linearGradient>
<linearGradient id="paint12_linear_64:0" x1="14.3626" y1="62.2752" x2="17.1273" y2="79.5569" gradientUnits="userSpaceOnUse">
<stop stop-color="#414141"/>
<stop offset="1" stop-color="white" stop-opacity="0"/>
</linearGradient>
<linearGradient id="paint13_linear_64:0" x1="31.4359" y1="66.5091" x2="18.9983" y2="77.8891" gradientUnits="userSpaceOnUse">
<stop stop-color="#414141"/>
<stop offset="1" stop-color="white" stop-opacity="0"/>
</linearGradient>
<linearGradient id="paint14_linear_64:0" x1="27.8551" y1="40.6637" x2="25.4721" y2="58.0111" gradientUnits="userSpaceOnUse">
<stop stop-color="#414141"/>
<stop offset="1" stop-color="white" stop-opacity="0"/>
</linearGradient>
<linearGradient id="paint15_linear_64:0" x1="43.225" y1="49.7269" x2="28.4983" y2="57.2605" gradientUnits="userSpaceOnUse">
<stop stop-color="#414141"/>
<stop offset="1" stop-color="white" stop-opacity="0"/>
</linearGradient>
<linearGradient id="paint16_linear_64:0" x1="46.6528" y1="23.1194" x2="40.0247" y2="39.1578" gradientUnits="userSpaceOnUse">
<stop stop-color="#414141"/>
<stop offset="1" stop-color="white" stop-opacity="0"/>
</linearGradient>
<linearGradient id="paint17_linear_64:0" x1="59.589" y1="35.8487" x2="43.7318" y2="39.8334" gradientUnits="userSpaceOnUse">
<stop stop-color="#414141"/>
<stop offset="1" stop-color="white" stop-opacity="0"/>
</linearGradient>
<linearGradient id="paint18_linear_64:0" x1="71.6478" y1="21.7459" x2="58.8717" y2="26.0103" gradientUnits="userSpaceOnUse">
<stop stop-color="#414141"/>
<stop offset="1" stop-color="white" stop-opacity="0"/>
</linearGradient>
<linearGradient id="paint19_linear_64:0" x1="165.436" y1="185.971" x2="149.163" y2="186.183" gradientUnits="userSpaceOnUse">
<stop stop-color="#414141"/>
<stop offset="1" stop-color="white" stop-opacity="0"/>
</linearGradient>
<linearGradient id="paint20_linear_64:0" x1="158.807" y1="168.496" x2="148.443" y2="182.071" gradientUnits="userSpaceOnUse">
<stop stop-color="#414141"/>
<stop offset="1" stop-color="white" stop-opacity="0"/>
</linearGradient>
<linearGradient id="paint21_linear_64:0" x1="184.455" y1="173.361" x2="168.542" y2="177.08" gradientUnits="userSpaceOnUse">
<stop stop-color="#414141"/>
<stop offset="1" stop-color="white" stop-opacity="0"/>
</linearGradient>
<linearGradient id="paint22_linear_64:0" x1="174.266" y1="158.005" x2="167.347" y2="173.901" gradientUnits="userSpaceOnUse">
<stop stop-color="#414141"/>
<stop offset="1" stop-color="white" stop-opacity="0"/>
</linearGradient>
<linearGradient id="paint23_linear_64:0" x1="201.496" y1="152.49" x2="186.505" y2="159.384" gradientUnits="userSpaceOnUse">
<stop stop-color="#414141"/>
<stop offset="1" stop-color="white" stop-opacity="0"/>
</linearGradient>
<linearGradient id="paint24_linear_64:0" x1="188.522" y1="139.804" x2="185.329" y2="157.001" gradientUnits="userSpaceOnUse">
<stop stop-color="#414141"/>
<stop offset="1" stop-color="white" stop-opacity="0"/>
</linearGradient>
<linearGradient id="paint25_linear_64:0" x1="214.002" y1="130.72" x2="200.677" y2="140.863" gradientUnits="userSpaceOnUse">
<stop stop-color="#414141"/>
<stop offset="1" stop-color="white" stop-opacity="0"/>
</linearGradient>
<linearGradient id="paint26_linear_64:0" x1="198.715" y1="121.499" x2="199.772" y2="138.994" gradientUnits="userSpaceOnUse">
<stop stop-color="#414141"/>
<stop offset="1" stop-color="white" stop-opacity="0"/>
</linearGradient>
<linearGradient id="paint27_linear_64:0" x1="220.776" y1="106.85" x2="210.4" y2="120.415" gradientUnits="userSpaceOnUse">
<stop stop-color="#414141"/>
<stop offset="1" stop-color="white" stop-opacity="0"/>
</linearGradient>
<linearGradient id="paint28_linear_64:0" x1="203.775" y1="102.292" x2="209.666" y2="118.656" gradientUnits="userSpaceOnUse">
<stop stop-color="#414141"/>
<stop offset="1" stop-color="white" stop-opacity="0"/>
</linearGradient>
<linearGradient id="paint29_linear_64:0" x1="219.805" y1="82.1084" x2="214.244" y2="98.6038" gradientUnits="userSpaceOnUse">
<stop stop-color="#414141"/>
<stop offset="1" stop-color="white" stop-opacity="0"/>
</linearGradient>
<linearGradient id="paint30_linear_64:0" x1="202.328" y1="83.4371" x2="212.955" y2="96.775" gradientUnits="userSpaceOnUse">
<stop stop-color="#414141"/>
<stop offset="1" stop-color="white" stop-opacity="0"/>
</linearGradient>
<linearGradient id="paint31_linear_64:0" x1="213.678" y1="59.1006" x2="211.717" y2="76.5071" gradientUnits="userSpaceOnUse">
<stop stop-color="#414141"/>
<stop offset="1" stop-color="white" stop-opacity="0"/>
</linearGradient>
<linearGradient id="paint32_linear_64:0" x1="196.79" y1="64.1251" x2="209.663" y2="74.9268" gradientUnits="userSpaceOnUse">
<stop stop-color="#414141"/>
<stop offset="1" stop-color="white" stop-opacity="0"/>
</linearGradient>
<linearGradient id="paint33_linear_64:0" x1="199.331" y1="38.1362" x2="202.512" y2="55.337" gradientUnits="userSpaceOnUse">
<stop stop-color="#414141"/>
<stop offset="1" stop-color="white" stop-opacity="0"/>
</linearGradient>
<linearGradient id="paint34_linear_64:0" x1="184.339" y1="47.9064" x2="199.326" y2="54.8079" gradientUnits="userSpaceOnUse">
<stop stop-color="#414141"/>
<stop offset="1" stop-color="white" stop-opacity="0"/>
</linearGradient>
<linearGradient id="paint35_linear_64:0" x1="179.183" y1="19.4277" x2="189.542" y2="33.0072" gradientUnits="userSpaceOnUse">
<stop stop-color="#414141"/>
<stop offset="1" stop-color="white" stop-opacity="0"/>
</linearGradient>
<linearGradient id="paint36_linear_64:0" x1="169.564" y1="35.2049" x2="185.837" y2="35.4264" gradientUnits="userSpaceOnUse">
<stop stop-color="#414141"/>
<stop offset="1" stop-color="white" stop-opacity="0"/>
</linearGradient>
<linearGradient id="paint37_linear_64:0" x1="154.406" y1="23.9209" x2="167.516" y2="26.7373" gradientUnits="userSpaceOnUse">
<stop stop-color="#414141"/>
<stop offset="1" stop-color="white" stop-opacity="0"/>
</linearGradient>
</defs>
</svg>
