<svg width="579" height="124" viewBox="0 0 579 124" fill="none" xmlns="http://www.w3.org/2000/svg">
<rect x="88.1707" y="36.3402" width="24.5596" height="57.569" fill="#3F059E" stroke="black"/>
<rect x="91.0159" y="40.5071" width="3.86365" height="7.11695" fill="white"/>
<rect x="106.867" y="40.5071" width="3.86363" height="7.11695" fill="white"/>
<rect x="106.867" y="51.5908" width="3.86363" height="7.11694" fill="white"/>
<rect x="106.867" y="62.6746" width="3.86363" height="7.11694" fill="white"/>
<rect x="106.867" y="73.7584" width="3.86363" height="7.11695" fill="white"/>
<rect x="106.867" y="84.3755" width="3.86363" height="7.11695" fill="white"/>
<rect x="91.0159" y="51.5908" width="3.86365" height="7.11694" fill="white"/>
<rect x="91.0159" y="62.6746" width="3.86365" height="7.11694" fill="white"/>
<rect x="91.0159" y="73.7584" width="3.86365" height="7.11695" fill="white"/>
<rect x="91.0159" y="84.8421" width="3.86365" height="7.11695" fill="white"/>
<rect x="98.7432" y="40.5071" width="4.25992" height="7.11695" fill="white"/>
<rect x="98.7432" y="51.5908" width="4.25992" height="7.11694" fill="white"/>
<rect x="98.7432" y="62.6746" width="4.25992" height="7.11694" fill="white"/>
<rect x="98.7432" y="73.7584" width="4.25992" height="7.11695" fill="white"/>
<rect x="98.7432" y="84.8421" width="4.25992" height="7.11695" fill="white"/>
<rect x="33.2637" y="36.3402" width="24.5596" height="57.569" fill="#3F059E" stroke="black"/>
<rect x="35.1414" y="40.5071" width="3.86366" height="7.11695" fill="white"/>
<rect x="50.9922" y="40.5071" width="3.86366" height="7.11695" fill="white"/>
<rect x="50.9922" y="51.5908" width="3.86366" height="7.11694" fill="white"/>
<rect x="50.9922" y="62.6746" width="3.86366" height="7.11694" fill="white"/>
<rect x="50.9922" y="73.7584" width="3.86366" height="7.11695" fill="white"/>
<rect x="50.9922" y="84.3755" width="3.86366" height="7.11695" fill="white"/>
<rect x="35.1414" y="51.5908" width="3.86366" height="7.11694" fill="white"/>
<rect x="35.1414" y="62.6746" width="3.86366" height="7.11694" fill="white"/>
<rect x="35.1414" y="73.7584" width="3.86366" height="7.11695" fill="white"/>
<rect x="35.1414" y="84.8421" width="3.86366" height="7.11695" fill="white"/>
<rect x="42.8687" y="40.5071" width="4.25993" height="7.11695" fill="white"/>
<rect x="42.8687" y="51.5908" width="4.25993" height="7.11694" fill="white"/>
<rect x="42.8687" y="62.6746" width="4.25993" height="7.11694" fill="white"/>
<rect x="42.8687" y="73.7584" width="4.25993" height="7.11695" fill="white"/>
<rect x="42.8687" y="84.8421" width="4.25993" height="7.11695" fill="white"/>
<rect x="57.4365" y="25.1398" width="31.1972" height="68.7694" fill="#3F059E" stroke="black"/>
<rect x="59.6694" y="27.5823" width="6.5699" height="8.16714" fill="white"/>
<rect x="69.8896" y="27.5823" width="6.3874" height="8.16714" fill="white"/>
<rect x="79.9268" y="27.5823" width="6.38741" height="8.16714" fill="white"/>
<rect x="59.6694" y="39.8331" width="6.5699" height="8.38206" fill="white"/>
<rect x="69.8896" y="39.8331" width="6.3874" height="8.38206" fill="white"/>
<rect x="79.9268" y="39.8331" width="6.38741" height="8.38206" fill="white"/>
<rect x="59.6694" y="52.2987" width="6.5699" height="8.38206" fill="white"/>
<rect x="69.8896" y="52.2987" width="6.3874" height="8.38206" fill="white"/>
<rect x="79.9268" y="52.2987" width="6.38741" height="8.38206" fill="white"/>
<rect x="59.6694" y="64.5495" width="6.5699" height="8.38206" fill="white"/>
<rect x="69.8896" y="64.5495" width="6.3874" height="8.38206" fill="white"/>
<rect x="79.9268" y="64.5495" width="6.38741" height="8.38206" fill="white"/>
<rect x="59.6694" y="76.8001" width="6.5699" height="8.16714" fill="white"/>
<rect x="69.8896" y="76.8001" width="6.3874" height="8.16714" fill="white"/>
<rect x="79.9268" y="76.8001" width="6.38741" height="8.16714" fill="white"/>
<rect x="68.0645" y="89.6956" width="10.0373" height="3.65372" fill="white"/>
<path d="M48.7822 115.16C50.7863 115.072 52.4224 115.79 52.4366 116.766C52.4508 117.741 50.8377 118.604 48.8337 118.693C46.8296 118.782 42.1328 118.199 42.1186 117.223C42.1044 116.248 46.7782 115.249 48.7822 115.16Z" fill="#02EC19"/>
<path d="M48.7822 115.16C50.7863 115.072 52.4224 115.79 52.4366 116.766C52.4508 117.741 50.8377 118.604 48.8337 118.693C46.8296 118.782 42.1328 118.199 42.1186 117.223C42.1044 116.248 46.7782 115.249 48.7822 115.16Z" fill="url(#paint0_linear_55_2)"/>
<path d="M51.3363 110.473C52.5485 112.154 52.913 114.033 52.1504 114.669C51.3877 115.305 49.7868 114.458 48.5745 112.777C47.3622 111.096 45.1463 106.65 45.909 106.014C46.6716 105.378 50.124 108.792 51.3363 110.473Z" fill="#02EC19"/>
<path d="M51.3363 110.473C52.5485 112.154 52.913 114.033 52.1504 114.669C51.3877 115.305 49.7868 114.458 48.5745 112.777C47.3622 111.096 45.1463 106.65 45.909 106.014C46.6716 105.378 50.124 108.792 51.3363 110.473Z" fill="url(#paint1_linear_55_2)"/>
<path d="M36.7144 109.361C38.6583 109.77 40.0668 110.935 39.8605 111.961C39.6542 112.988 37.9111 113.488 35.9672 113.079C34.0234 112.669 29.646 110.879 29.8524 109.852C30.0587 108.825 34.7705 108.951 36.7144 109.361Z" fill="#02EC19"/>
<path d="M36.7144 109.361C38.6583 109.77 40.0668 110.935 39.8605 111.961C39.6542 112.988 37.9111 113.488 35.9672 113.079C34.0234 112.669 29.646 110.879 29.8524 109.852C30.0587 108.825 34.7705 108.951 36.7144 109.361Z" fill="url(#paint2_linear_55_2)"/>
<path d="M40.2096 105.555C41.0206 107.491 40.9623 109.415 40.0794 109.852C39.1965 110.288 37.8233 109.072 37.0124 107.135C36.2014 105.199 35.0212 100.317 35.9041 99.8808C36.787 99.4442 39.3987 103.618 40.2096 105.555Z" fill="#02EC19"/>
<path d="M40.2096 105.555C41.0206 107.491 40.9623 109.415 40.0794 109.852C39.1965 110.288 37.8233 109.072 37.0124 107.135C36.2014 105.199 35.0212 100.317 35.9041 99.8808C36.787 99.4442 39.3987 103.618 40.2096 105.555Z" fill="url(#paint3_linear_55_2)"/>
<path d="M25.3395 98.3731C27.1597 99.2325 28.3197 100.69 27.9304 101.628C27.5411 102.565 25.7499 102.629 23.9296 101.77C22.1094 100.91 18.1694 98.1406 18.5587 97.2027C18.948 96.2647 23.5192 97.5136 25.3395 98.3731Z" fill="#02EC19"/>
<path d="M25.3395 98.3731C27.1597 99.2325 28.3197 100.69 27.9304 101.628C27.5411 102.565 25.7499 102.629 23.9296 101.77C22.1094 100.91 18.1694 98.1406 18.5587 97.2027C18.948 96.2647 23.5192 97.5136 25.3395 98.3731Z" fill="url(#paint4_linear_55_2)"/>
<path d="M29.5127 95.4135C29.9275 97.5002 29.5044 99.372 28.5677 99.5943C27.6311 99.8165 26.5356 98.3052 26.1209 96.2185C25.7062 94.1318 25.4959 89.0731 26.4325 88.8508C27.3691 88.6285 29.098 93.3268 29.5127 95.4135Z" fill="#02EC19"/>
<path d="M29.5127 95.4135C29.9275 97.5002 29.5044 99.372 28.5677 99.5943C27.6311 99.8165 26.5356 98.3052 26.1209 96.2185C25.7062 94.1318 25.4959 89.0731 26.4325 88.8508C27.3691 88.6285 29.098 93.3268 29.5127 95.4135Z" fill="url(#paint5_linear_55_2)"/>
<path d="M16.4538 86.719C18.0557 88.01 18.9004 89.7065 18.3405 90.5083C17.7806 91.3101 16.0282 90.9135 14.4263 89.6225C12.8244 88.3315 9.53323 84.6632 10.0931 83.8614C10.653 83.0596 14.8519 85.428 16.4538 86.719Z" fill="#02EC19"/>
<path d="M16.4538 86.719C18.0557 88.01 18.9004 89.7065 18.3405 90.5083C17.7806 91.3101 16.0282 90.9135 14.4263 89.6225C12.8244 88.3315 9.53323 84.6632 10.0931 83.8614C10.653 83.0596 14.8519 85.428 16.4538 86.719Z" fill="url(#paint6_linear_55_2)"/>
<path d="M21.1965 84.8185C21.1868 86.9528 20.3943 88.6656 19.4263 88.6443C18.4583 88.6229 17.6814 86.8755 17.6911 84.7412C17.7008 82.6069 18.5081 77.6345 19.4761 77.6559C20.4441 77.6772 21.2062 82.6842 21.1965 84.8185Z" fill="#02EC19"/>
<path d="M21.1965 84.8185C21.1868 86.9528 20.3943 88.6656 19.4263 88.6443C18.4583 88.6229 17.6814 86.8755 17.6911 84.7412C17.7008 82.6069 18.5081 77.6345 19.4761 77.6559C20.4441 77.6772 21.2062 82.6842 21.1965 84.8185Z" fill="url(#paint7_linear_55_2)"/>
<path d="M10.6459 73.6424C11.8838 75.3448 12.2969 77.2151 11.5687 77.8198C10.8405 78.4244 9.24664 77.5345 8.00879 75.8321C6.77094 74.1297 4.4673 69.6595 5.19553 69.0548C5.92376 68.4501 9.40809 71.94 10.6459 73.6424Z" fill="#02EC19"/>
<path d="M10.6459 73.6424C11.8838 75.3448 12.2969 77.2151 11.5687 77.8198C10.8405 78.4244 9.24664 77.5345 8.00879 75.8321C6.77094 74.1297 4.4673 69.6595 5.19553 69.0548C5.92376 68.4501 9.40809 71.94 10.6459 73.6424Z" fill="url(#paint8_linear_55_2)"/>
<path d="M15.7144 73.1225C15.1841 75.1679 13.9945 76.5856 13.0573 76.289C12.1202 75.9923 11.7904 74.0937 12.3207 72.0482C12.851 70.0027 14.8505 65.4611 15.7877 65.7578C16.7248 66.0544 16.2447 71.077 15.7144 73.1225Z" fill="#02EC19"/>
<path d="M15.7144 73.1225C15.1841 75.1679 13.9945 76.5856 13.0573 76.289C12.1202 75.9923 11.7904 74.0937 12.3207 72.0482C12.851 70.0027 14.8505 65.4611 15.7877 65.7578C16.7248 66.0544 16.2447 71.077 15.7144 73.1225Z" fill="url(#paint9_linear_55_2)"/>
<path d="M9.07792 59.6298C9.76133 61.6469 9.60082 63.5568 8.71943 63.8958C7.83804 64.2347 6.56952 62.8743 5.88612 60.8573C5.20272 58.8402 4.31949 53.8497 5.20088 53.5108C6.08228 53.1718 8.39452 57.6128 9.07792 59.6298Z" fill="#02EC19"/>
<path d="M9.07792 59.6298C9.76133 61.6469 9.60082 63.5568 8.71943 63.8958C7.83804 64.2347 6.56952 62.8743 5.88612 60.8573C5.20272 58.8402 4.31949 53.8497 5.20088 53.5108C6.08228 53.1718 8.39452 57.6128 9.07792 59.6298Z" fill="url(#paint10_linear_55_2)"/>
<path d="M13.983 60.8004C12.8712 62.5707 11.3292 63.5412 10.5388 62.9681C9.74834 62.395 10.0088 60.4954 11.1205 58.7252C12.2322 56.9549 15.4721 53.2809 16.2625 53.8539C17.053 54.427 15.0947 59.0302 13.983 60.8004Z" fill="#02EC19"/>
<path d="M13.983 60.8004C12.8712 62.5707 11.3292 63.5412 10.5388 62.9681C9.74834 62.395 10.0088 60.4954 11.1205 58.7252C12.2322 56.9549 15.4721 53.2809 16.2625 53.8539C17.053 54.427 15.0947 59.0302 13.983 60.8004Z" fill="url(#paint11_linear_55_2)"/>
<path d="M11.7492 45.9242C12.0314 48.036 11.489 49.8749 10.5378 50.0316C9.58655 50.1883 8.58671 48.6034 8.30457 46.4916C8.02242 44.3799 8.1339 39.3157 9.08512 39.159C10.0363 39.0024 11.4671 43.8125 11.7492 45.9242Z" fill="#02EC19"/>
<path d="M11.7492 45.9242C12.0314 48.036 11.489 49.8749 10.5378 50.0316C9.58655 50.1883 8.58671 48.6034 8.30457 46.4916C8.02242 44.3799 8.1339 39.3157 9.08512 39.159C10.0363 39.0024 11.4671 43.8125 11.7492 45.9242Z" fill="url(#paint12_linear_55_2)"/>
<path d="M16.2767 48.119C14.8499 49.6275 13.1614 50.2716 12.5053 49.5576C11.8491 48.8437 12.4738 47.042 13.9005 45.5335C15.3273 44.025 19.1948 41.0771 19.8509 41.7911C20.5071 42.5051 17.7034 46.6106 16.2767 48.119Z" fill="#02EC19"/>
<path d="M16.2767 48.119C14.8499 49.6275 13.1614 50.2716 12.5053 49.5576C11.8491 48.8437 12.4738 47.042 13.9005 45.5335C15.3273 44.025 19.1948 41.0771 19.8509 41.7911C20.5071 42.5051 17.7034 46.6106 16.2767 48.119Z" fill="url(#paint13_linear_55_2)"/>
<path d="M18.3494 32.8583C18.0719 34.9935 17.1145 36.6342 16.2111 36.5229C15.3078 36.4115 14.8004 34.5902 15.078 32.455C15.3555 30.3197 16.7367 25.418 17.6401 25.5293C18.5435 25.6407 18.627 30.723 18.3494 32.8583Z" fill="#02EC19"/>
<path d="M18.3494 32.8583C18.0719 34.9935 17.1145 36.6342 16.2111 36.5229C15.3078 36.4115 14.8004 34.5902 15.078 32.455C15.3555 30.3197 16.7367 25.418 17.6401 25.5293C18.5435 25.6407 18.627 30.723 18.3494 32.8583Z" fill="url(#paint14_linear_55_2)"/>
<path d="M22.236 36.2847C20.477 37.3336 18.6938 37.4823 18.2531 36.6167C17.8124 35.7511 18.881 34.1991 20.64 33.1501C22.3989 32.1012 26.8685 30.3505 27.3092 31.2161C27.7499 32.0817 23.9949 35.2357 22.236 36.2847Z" fill="#02EC19"/>
<path d="M22.236 36.2847C20.477 37.3336 18.6938 37.4823 18.2531 36.6167C17.8124 35.7511 18.881 34.1991 20.64 33.1501C22.3989 32.1012 26.8685 30.3505 27.3092 31.2161C27.7499 32.0817 23.9949 35.2357 22.236 36.2847Z" fill="url(#paint15_linear_55_2)"/>
<path d="M28.6238 21.848C27.8988 23.8533 26.6066 25.1922 25.7376 24.8387C24.8686 24.4852 24.7519 22.573 25.4769 20.5678C26.202 18.5625 28.6014 14.161 29.4704 14.5146C30.3394 14.8681 29.3489 19.8428 28.6238 21.848Z" fill="#02EC19"/>
<path d="M28.6238 21.848C27.8988 23.8533 26.6066 25.1922 25.7376 24.8387C24.8686 24.4852 24.7519 22.573 25.4769 20.5678C26.202 18.5625 28.6014 14.161 29.4704 14.5146C30.3394 14.8681 29.3489 19.8428 28.6238 21.848Z" fill="url(#paint16_linear_55_2)"/>
<path d="M31.6089 26.1504C29.6762 26.722 27.9164 26.4061 27.6784 25.4448C27.4403 24.4835 28.8141 23.2409 30.7468 22.6693C32.6795 22.0978 37.391 21.5407 37.629 22.502C37.8671 23.4633 33.5416 25.5789 31.6089 26.1504Z" fill="#02EC19"/>
<path d="M31.6089 26.1504C29.6762 26.722 27.9164 26.4061 27.6784 25.4448C27.4403 24.4835 28.8141 23.2409 30.7468 22.6693C32.6795 22.0978 37.391 21.5407 37.629 22.502C37.8671 23.4633 33.5416 25.5789 31.6089 26.1504Z" fill="url(#paint17_linear_55_2)"/>
<path d="M40.5558 17.0732C39.0138 17.6679 37.5507 17.5146 37.2879 16.7308C37.0252 15.9471 38.0622 14.8296 39.6042 14.2349C41.1462 13.6402 44.9642 12.8852 45.227 13.669C45.4898 14.4528 42.0978 16.4785 40.5558 17.0732Z" fill="#02EC19"/>
<path d="M40.5558 17.0732C39.0138 17.6679 37.5507 17.5146 37.2879 16.7308C37.0252 15.9471 38.0622 14.8296 39.6042 14.2349C41.1462 13.6402 44.9642 12.8852 45.227 13.669C45.4898 14.4528 42.0978 16.4785 40.5558 17.0732Z" fill="url(#paint18_linear_55_2)"/>
<path d="M97.7408 115.064C95.7557 115.061 94.1693 115.913 94.1976 116.966C94.2258 118.02 95.858 118.877 97.8431 118.879C99.8282 118.882 104.446 118.035 104.418 116.981C104.39 115.928 99.7259 115.067 97.7408 115.064Z" fill="#02EC19"/>
<path d="M97.7408 115.064C95.7557 115.061 94.1693 115.913 94.1976 116.966C94.2258 118.02 95.858 118.877 97.8431 118.879C99.8282 118.882 104.446 118.035 104.418 116.981C104.39 115.928 99.7259 115.067 97.7408 115.064Z" fill="url(#paint19_linear_55_2)"/>
<path d="M94.9887 110.642C93.8473 112.378 93.5617 114.273 94.3509 114.875C95.1401 115.477 96.7052 114.559 97.8467 112.824C98.9881 111.089 101.017 106.543 100.228 105.941C99.4386 105.339 96.1302 108.907 94.9887 110.642Z" fill="#02EC19"/>
<path d="M94.9887 110.642C93.8473 112.378 93.5617 114.273 94.3509 114.875C95.1401 115.477 96.7052 114.559 97.8467 112.824C98.9881 111.089 101.017 106.543 100.228 105.941C99.4386 105.339 96.1302 108.907 94.9887 110.642Z" fill="url(#paint20_linear_55_2)"/>
<path d="M109.558 108.867C107.632 109.37 106.27 110.599 106.515 111.611C106.76 112.623 108.52 113.037 110.445 112.534C112.37 112.031 116.673 110.034 116.428 109.022C116.183 108.009 111.483 108.364 109.558 108.867Z" fill="#02EC19"/>
<path d="M109.558 108.867C107.632 109.37 106.27 110.599 106.515 111.611C106.76 112.623 108.52 113.037 110.445 112.534C112.37 112.031 116.673 110.034 116.428 109.022C116.183 108.009 111.483 108.364 109.558 108.867Z" fill="url(#paint21_linear_55_2)"/>
<path d="M105.91 105.218C105.178 107.192 105.313 109.113 106.212 109.508C107.11 109.903 108.432 108.623 109.164 106.649C109.896 104.675 110.88 99.7403 109.981 99.3452C109.082 98.95 106.642 103.244 105.91 105.218Z" fill="#02EC19"/>
<path d="M105.91 105.218C105.178 107.192 105.313 109.113 106.212 109.508C107.11 109.903 108.432 108.623 109.164 106.649C109.896 104.675 110.88 99.7403 109.981 99.3452C109.082 98.95 106.642 103.244 105.91 105.218Z" fill="url(#paint22_linear_55_2)"/>
<path d="M120.479 97.3633C118.694 98.3096 117.59 99.8183 118.014 100.733C118.438 101.648 120.229 101.623 122.014 100.676C123.799 99.7299 127.63 96.7759 127.206 95.8611C126.782 94.9462 122.265 96.417 120.479 97.3633Z" fill="#02EC19"/>
<path d="M120.479 97.3633C118.694 98.3096 117.59 99.8183 118.014 100.733C118.438 101.648 120.229 101.623 122.014 100.676C123.799 99.7299 127.63 96.7759 127.206 95.8611C126.782 94.9462 122.265 96.417 120.479 97.3633Z" fill="url(#paint23_linear_55_2)"/>
<path d="M116.193 94.5954C115.859 96.7017 116.351 98.5523 117.291 98.7288C118.231 98.9053 119.264 97.3408 119.597 95.2345C119.93 93.1282 119.947 88.0608 119.007 87.8843C118.067 87.7078 116.526 92.4891 116.193 94.5954Z" fill="#02EC19"/>
<path d="M116.193 94.5954C115.859 96.7017 116.351 98.5523 117.291 98.7288C118.231 98.9053 119.264 97.3408 119.597 95.2345C119.93 93.1282 119.947 88.0608 119.007 87.8843C118.067 87.7078 116.526 92.4891 116.193 94.5954Z" fill="url(#paint24_linear_55_2)"/>
<path d="M128.885 85.3054C127.335 86.671 126.556 88.404 127.146 89.1761C127.735 89.9482 129.47 89.4671 131.02 88.1015C132.571 86.7358 135.718 82.9172 135.128 82.1451C134.539 81.373 130.436 83.9398 128.885 85.3054Z" fill="#02EC19"/>
<path d="M128.885 85.3054C127.335 86.671 126.556 88.404 127.146 89.1761C127.735 89.9482 129.47 89.4671 131.02 88.1015C132.571 86.7358 135.718 82.9172 135.128 82.1451C134.539 81.373 130.436 83.9398 128.885 85.3054Z" fill="url(#paint25_linear_55_2)"/>
<path d="M124.059 83.6205C124.152 85.7498 125.015 87.4212 125.985 87.3536C126.955 87.286 127.667 85.505 127.573 83.3756C127.48 81.2463 126.476 76.3229 125.505 76.3905C124.535 76.4581 123.966 81.4911 124.059 83.6205Z" fill="#02EC19"/>
<path d="M124.059 83.6205C124.152 85.7498 125.015 87.4212 125.985 87.3536C126.955 87.286 127.667 85.505 127.573 83.3756C127.48 81.2463 126.476 76.3229 125.505 76.3905C124.535 76.4581 123.966 81.4911 124.059 83.6205Z" fill="url(#paint26_linear_55_2)"/>
<path d="M134.158 71.9655C132.989 73.7227 132.651 75.6093 133.404 76.1793C134.156 76.7492 135.713 75.7868 136.882 74.0296C138.051 72.2724 140.174 67.7021 139.422 67.1321C138.67 66.5621 135.327 70.2083 134.158 71.9655Z" fill="#02EC19"/>
<path d="M134.158 71.9655C132.989 73.7227 132.651 75.6093 133.404 76.1793C134.156 76.7492 135.713 75.7868 136.882 74.0296C138.051 72.2724 140.174 67.7021 139.422 67.1321C138.67 66.5621 135.327 70.2083 134.158 71.9655Z" fill="url(#paint27_linear_55_2)"/>
<path d="M129.078 71.6774C129.692 73.6957 130.938 75.0576 131.861 74.7193C132.785 74.381 133.035 72.4707 132.421 70.4525C131.807 68.4342 129.623 63.99 128.7 64.3282C127.777 64.6665 128.464 69.6592 129.078 71.6774Z" fill="#02EC19"/>
<path d="M129.078 71.6774C129.692 73.6957 130.938 75.0576 131.861 74.7193C132.785 74.381 133.035 72.4707 132.421 70.4525C131.807 68.4342 129.623 63.99 128.7 64.3282C127.777 64.6665 128.464 69.6592 129.078 71.6774Z" fill="url(#paint28_linear_55_2)"/>
<path d="M135.156 57.8871C134.557 59.9317 134.8 61.8326 135.698 62.1328C136.597 62.4331 137.81 61.019 138.409 58.9744C139.008 56.9298 139.68 51.9063 138.782 51.6061C137.883 51.3058 135.755 55.8425 135.156 57.8871Z" fill="#02EC19"/>
<path d="M135.156 57.8871C134.557 59.9317 134.8 61.8326 135.698 62.1328C136.597 62.4331 137.81 61.019 138.409 58.9744C139.008 56.9298 139.68 51.9063 138.782 51.6061C137.883 51.3058 135.755 55.8425 135.156 57.8871Z" fill="url(#paint29_linear_55_2)"/>
<path d="M130.316 59.2855C131.501 61.0044 133.08 61.9066 133.843 61.3007C134.607 60.6947 134.265 58.81 133.081 57.0911C131.896 55.3722 128.508 51.8447 127.745 52.4507C126.981 53.0567 129.132 57.5666 130.316 59.2855Z" fill="#02EC19"/>
<path d="M130.316 59.2855C131.501 61.0044 133.08 61.9066 133.843 61.3007C134.607 60.6947 134.265 58.81 133.081 57.0911C131.896 55.3722 128.508 51.8447 127.745 52.4507C126.981 53.0567 129.132 57.5666 130.316 59.2855Z" fill="url(#paint30_linear_55_2)"/>
<path d="M132.48 44.0396C132.288 46.1611 132.914 47.9749 133.878 48.0907C134.841 48.2065 135.778 46.5806 135.969 44.4591C136.161 42.3376 135.828 37.2837 134.864 37.1679C133.9 37.052 132.671 41.9181 132.48 44.0396Z" fill="#02EC19"/>
<path d="M132.48 44.0396C132.288 46.1611 132.914 47.9749 133.878 48.0907C134.841 48.2065 135.778 46.5806 135.969 44.4591C136.161 42.3376 135.828 37.2837 134.864 37.1679C133.9 37.052 132.671 41.9181 132.48 44.0396Z" fill="url(#paint31_linear_55_2)"/>
<path d="M128.059 46.4461C129.547 47.8894 131.259 48.4588 131.883 47.7178C132.507 46.9767 131.807 45.2059 130.319 43.7626C128.832 42.3192 124.848 39.5454 124.224 40.2865C123.6 41.0275 126.572 45.0027 128.059 46.4461Z" fill="#02EC19"/>
<path d="M128.059 46.4461C129.547 47.8894 131.259 48.4588 131.883 47.7178C132.507 46.9767 131.807 45.2059 130.319 43.7626C128.832 42.3192 124.848 39.5454 124.224 40.2865C123.6 41.0275 126.572 45.0027 128.059 46.4461Z" fill="url(#paint32_linear_55_2)"/>
<path d="M125.361 31.3027C125.722 33.424 126.744 35.018 127.645 34.863C128.545 34.708 128.983 32.8626 128.623 30.7413C128.262 28.62 126.689 23.7862 125.789 23.9412C124.888 24.0962 125.001 29.1814 125.361 31.3027Z" fill="#02EC19"/>
<path d="M125.361 31.3027C125.722 33.424 126.744 35.018 127.645 34.863C128.545 34.708 128.983 32.8626 128.623 30.7413C128.262 28.62 126.689 23.7862 125.789 23.9412C124.888 24.0962 125.001 29.1814 125.361 31.3027Z" fill="url(#paint33_linear_55_2)"/>
<path d="M121.623 34.9025C123.422 35.87 125.208 35.9367 125.613 35.0515C126.018 34.1663 124.888 32.6643 123.09 31.6968C121.291 30.7293 116.757 29.185 116.353 30.0703C115.948 30.9555 119.825 33.935 121.623 34.9025Z" fill="#02EC19"/>
<path d="M121.623 34.9025C123.422 35.87 125.208 35.9367 125.613 35.0515C126.018 34.1663 124.888 32.6643 123.09 31.6968C121.291 30.7293 116.757 29.185 116.353 30.0703C115.948 30.9555 119.825 33.935 121.623 34.9025Z" fill="url(#paint34_linear_55_2)"/>
<path d="M115.56 19.1121C116.708 20.8545 118.27 21.7865 119.049 21.1938C119.828 20.6012 119.529 18.7083 118.381 16.9659C117.233 15.2236 113.917 11.6305 113.138 12.2232C112.359 12.8159 114.412 17.3698 115.56 19.1121Z" fill="#02EC19"/>
<path d="M115.56 19.1121C116.708 20.8545 118.27 21.7865 119.049 21.1938C119.828 20.6012 119.529 18.7083 118.381 16.9659C117.233 15.2236 113.917 11.6305 113.138 12.2232C112.359 12.8159 114.412 17.3698 115.56 19.1121Z" fill="url(#paint35_linear_55_2)"/>
<path d="M113.673 24.0947C115.665 24.1127 117.295 23.2893 117.315 22.2556C117.335 21.2219 115.737 20.3694 113.746 20.3514C111.754 20.3334 107.083 21.1294 107.063 22.163C107.043 23.1967 111.682 24.0767 113.673 24.0947Z" fill="#02EC19"/>
<path d="M113.673 24.0947C115.665 24.1127 117.295 23.2893 117.315 22.2556C117.335 21.2219 115.737 20.3694 113.746 20.3514C111.754 20.3334 107.083 21.1294 107.063 22.163C107.043 23.1967 111.682 24.0767 113.673 24.0947Z" fill="url(#paint36_linear_55_2)"/>
<path d="M102.492 17.8278C104.089 18.2241 105.525 17.8875 105.7 17.0761C105.875 16.2646 104.723 15.2856 103.126 14.8893C101.53 14.493 97.6557 14.2243 97.4806 15.0358C97.3054 15.8472 100.896 17.4315 102.492 17.8278Z" fill="#02EC19"/>
<path d="M102.492 17.8278C104.089 18.2241 105.525 17.8875 105.7 17.0761C105.875 16.2646 104.723 15.2856 103.126 14.8893C101.53 14.493 97.6557 14.2243 97.4806 15.0358C97.3054 15.8472 100.896 17.4315 102.492 17.8278Z" fill="url(#paint37_linear_55_2)"/>
<path d="M52.8939 0.807005L54.2035 4.82671L54.2598 4.99926H54.4412H58.6775L55.2509 7.48202L55.1035 7.58883L55.1599 7.76192L56.4691 11.7802L53.0405 9.29608L52.8939 9.1898L52.7472 9.29608L49.3186 11.7802L50.6278 7.76192L50.6842 7.58883L50.5368 7.48202L47.1102 4.99926H51.3465H51.528L51.5842 4.82671L52.8939 0.807005Z" fill="#FBFF1F" stroke="black" stroke-width="0.5"/>
<path d="M72.8446 0.794438L74.1818 4.82793L74.2386 4.99926H74.4191H78.7323L75.2472 7.48082L75.0969 7.5879L75.1549 7.76314L76.4888 11.7865L72.9896 9.29488L72.8446 9.19162L72.6996 9.29488L69.2004 11.7865L70.5343 7.76314L70.5924 7.5879L70.442 7.48082L66.9569 4.99926H71.2701H71.4506L71.5074 4.82793L72.8446 0.794438Z" fill="#FBFF1F" stroke="black" stroke-width="0.5"/>
<path d="M93.1583 0.794437L94.4956 4.82793L94.5524 4.99926H94.7329H99.046L95.561 7.48082L95.4106 7.5879L95.4687 7.76314L96.8025 11.7865L93.3033 9.29488L93.1583 9.19162L93.0133 9.29488L89.5141 11.7865L90.848 7.76314L90.9061 7.5879L90.7557 7.48082L87.2706 4.99926H91.5838H91.7643L91.8211 4.82793L93.1583 0.794437Z" fill="#FBFF1F" stroke="black" stroke-width="0.5"/>
<ellipse cx="58.8186" cy="114.899" rx="3.14379" ry="3.37176" fill="#00BC13"/>
<ellipse cx="88.0801" cy="114.899" rx="3.14378" ry="3.37176" fill="#00BC13"/>
<ellipse cx="73.3284" cy="115.677" rx="7.25489" ry="7.78098" fill="#00BC13"/>
<path d="M174.943 49.8V60.564H187.507V49.8H191.395V75H187.507V64.308H174.943V75H171.055V49.8H174.943ZM224.937 62.4C224.937 64.224 224.637 65.928 224.037 67.512C223.437 69.072 222.573 70.44 221.445 71.616C220.341 72.792 219.033 73.716 217.521 74.388C216.033 75.036 214.389 75.36 212.589 75.36C210.789 75.36 209.133 75.036 207.621 74.388C206.109 73.716 204.801 72.792 203.697 71.616C202.593 70.44 201.741 69.072 201.141 67.512C200.541 65.928 200.241 64.224 200.241 62.4C200.241 60.576 200.541 58.884 201.141 57.324C201.741 55.74 202.593 54.36 203.697 53.184C204.801 52.008 206.109 51.096 207.621 50.448C209.133 49.776 210.789 49.44 212.589 49.44C214.389 49.44 216.033 49.776 217.521 50.448C219.033 51.096 220.341 52.008 221.445 53.184C222.573 54.36 223.437 55.74 224.037 57.324C224.637 58.884 224.937 60.576 224.937 62.4ZM220.977 62.4C220.977 60.648 220.617 59.088 219.897 57.72C219.177 56.328 218.181 55.236 216.909 54.444C215.661 53.628 214.221 53.22 212.589 53.22C210.933 53.22 209.469 53.628 208.197 54.444C206.949 55.236 205.965 56.328 205.245 57.72C204.549 59.088 204.201 60.648 204.201 62.4C204.201 64.152 204.549 65.724 205.245 67.116C205.965 68.484 206.949 69.576 208.197 70.392C209.469 71.184 210.933 71.58 212.589 71.58C214.221 71.58 215.661 71.184 216.909 70.392C218.181 69.576 219.177 68.472 219.897 67.08C220.617 65.688 220.977 64.128 220.977 62.4ZM237.5 75V53.544H230.444V49.8H248.66V53.544H241.388V75H237.5ZM257.054 49.8H272.93V53.544H260.942V60.204H270.95V63.948H260.942V71.256H272.93V75H257.054V49.8ZM298.463 71.256V75H282.767V49.8H286.655V71.256H298.463ZM332.696 75H320.672V71.4H324.74V53.4H320.672V49.8H332.696V53.4H328.628V71.4H332.696V75ZM346.215 49.8L354.459 63.228L362.847 49.8H366.447V75H362.559V64.668C362.559 63.156 362.583 61.728 362.631 60.384C362.703 59.016 362.811 57.66 362.955 56.316L355.539 67.764H353.163L345.927 56.352C346.071 57.696 346.167 59.04 346.215 60.384C346.263 61.728 346.287 63.156 346.287 64.668V75H342.399V49.8H346.215ZM387.372 49.8C388.716 49.8 389.952 50.148 391.08 50.844C392.208 51.516 393.108 52.44 393.78 53.616C394.452 54.768 394.788 56.076 394.788 57.54C394.788 58.98 394.452 60.3 393.78 61.5C393.108 62.676 392.208 63.612 391.08 64.308C389.952 65.004 388.716 65.352 387.372 65.352H381V75H377.112V49.8H387.372ZM387.3 61.608C387.948 61.608 388.536 61.428 389.064 61.068C389.592 60.684 390.012 60.192 390.324 59.592C390.66 58.968 390.828 58.284 390.828 57.54C390.828 56.412 390.48 55.464 389.784 54.696C389.088 53.928 388.26 53.544 387.3 53.544H381V61.608H387.3ZM403.529 49.8H419.405V53.544H407.417V60.204H417.425V63.948H407.417V71.256H419.405V75H403.529V49.8ZM447.926 57.828C447.926 59.34 447.47 60.744 446.558 62.04C445.67 63.336 444.506 64.296 443.066 64.92L448.934 75.036L444.218 75L438.89 65.532H433.13V75H429.242V49.8H439.97C441.29 49.8 442.55 50.124 443.75 50.772C444.974 51.42 445.97 52.344 446.738 53.544C447.53 54.744 447.926 56.172 447.926 57.828ZM439.322 53.544H433.13V61.788H440.33C441.482 61.788 442.37 61.38 442.994 60.564C443.642 59.748 443.966 58.824 443.966 57.792C443.966 56.472 443.51 55.44 442.598 54.696C441.686 53.928 440.594 53.544 439.322 53.544ZM474.505 75L472.129 68.736H461.581L459.205 75H455.245L465.001 49.8H468.961L478.645 75H474.505ZM464.929 59.952L463.021 64.992H470.725L468.745 59.808C468.433 58.968 468.121 58.068 467.809 57.108C467.497 56.124 467.185 55.14 466.873 54.156C466.537 55.164 466.201 56.172 465.865 57.18C465.553 58.188 465.241 59.112 464.929 59.952ZM496.544 49.8C498.488 49.8 500.192 50.136 501.656 50.808C503.144 51.456 504.38 52.368 505.364 53.544C506.348 54.696 507.092 56.04 507.596 57.576C508.1 59.088 508.352 60.696 508.352 62.4C508.352 64.704 507.908 66.816 507.02 68.736C506.132 70.632 504.812 72.156 503.06 73.308C501.308 74.436 499.136 75 496.544 75H486.68V49.8H496.544ZM496.364 71.256C498.26 71.256 499.796 70.86 500.972 70.068C502.148 69.252 503.012 68.172 503.564 66.828C504.116 65.484 504.392 64.008 504.392 62.4C504.392 60.816 504.116 59.352 503.564 58.008C503.012 56.664 502.148 55.584 500.972 54.768C499.796 53.952 498.26 53.544 496.364 53.544H490.568V71.256H496.364ZM540.106 62.4C540.106 64.224 539.806 65.928 539.206 67.512C538.606 69.072 537.742 70.44 536.614 71.616C535.51 72.792 534.202 73.716 532.69 74.388C531.202 75.036 529.558 75.36 527.758 75.36C525.958 75.36 524.302 75.036 522.79 74.388C521.278 73.716 519.97 72.792 518.866 71.616C517.762 70.44 516.91 69.072 516.31 67.512C515.71 65.928 515.41 64.224 515.41 62.4C515.41 60.576 515.71 58.884 516.31 57.324C516.91 55.74 517.762 54.36 518.866 53.184C519.97 52.008 521.278 51.096 522.79 50.448C524.302 49.776 525.958 49.44 527.758 49.44C529.558 49.44 531.202 49.776 532.69 50.448C534.202 51.096 535.51 52.008 536.614 53.184C537.742 54.36 538.606 55.74 539.206 57.324C539.806 58.884 540.106 60.576 540.106 62.4ZM536.146 62.4C536.146 60.648 535.786 59.088 535.066 57.72C534.346 56.328 533.35 55.236 532.078 54.444C530.83 53.628 529.39 53.22 527.758 53.22C526.102 53.22 524.638 53.628 523.366 54.444C522.118 55.236 521.134 56.328 520.414 57.72C519.718 59.088 519.37 60.648 519.37 62.4C519.37 64.152 519.718 65.724 520.414 67.116C521.134 68.484 522.118 69.576 523.366 70.392C524.638 71.184 526.102 71.58 527.758 71.58C529.39 71.58 530.83 71.184 532.078 70.392C533.35 69.576 534.346 68.472 535.066 67.08C535.786 65.688 536.146 64.128 536.146 62.4ZM567.654 57.828C567.654 59.34 567.198 60.744 566.286 62.04C565.398 63.336 564.234 64.296 562.794 64.92L568.662 75.036L563.946 75L558.618 65.532H552.858V75H548.97V49.8H559.698C561.018 49.8 562.278 50.124 563.478 50.772C564.702 51.42 565.698 52.344 566.466 53.544C567.258 54.744 567.654 56.172 567.654 57.828ZM559.05 53.544H552.858V61.788H560.058C561.21 61.788 562.098 61.38 562.722 60.564C563.37 59.748 563.694 58.824 563.694 57.792C563.694 56.472 563.238 55.44 562.326 54.696C561.414 53.928 560.322 53.544 559.05 53.544Z" fill="white"/>
<defs>
<linearGradient id="paint0_linear_55_2" x1="42.1186" y1="117.223" x2="52.4411" y2="117.073" gradientUnits="userSpaceOnUse">
<stop stop-color="#414141"/>
<stop offset="1" stop-color="white" stop-opacity="0"/>
</linearGradient>
<linearGradient id="paint1_linear_55_2" x1="45.909" y1="106.014" x2="52.7274" y2="114.188" gradientUnits="userSpaceOnUse">
<stop stop-color="#414141"/>
<stop offset="1" stop-color="white" stop-opacity="0"/>
</linearGradient>
<linearGradient id="paint2_linear_55_2" x1="29.8524" y1="109.852" x2="39.8794" y2="111.867" gradientUnits="userSpaceOnUse">
<stop stop-color="#414141"/>
<stop offset="1" stop-color="white" stop-opacity="0"/>
</linearGradient>
<linearGradient id="paint3_linear_55_2" x1="35.9041" y1="99.8808" x2="40.686" y2="109.552" gradientUnits="userSpaceOnUse">
<stop stop-color="#414141"/>
<stop offset="1" stop-color="white" stop-opacity="0"/>
</linearGradient>
<linearGradient id="paint4_linear_55_2" x1="18.5587" y1="97.2027" x2="28.1198" y2="101.171" gradientUnits="userSpaceOnUse">
<stop stop-color="#414141"/>
<stop offset="1" stop-color="white" stop-opacity="0"/>
</linearGradient>
<linearGradient id="paint5_linear_55_2" x1="26.4325" y1="88.8508" x2="28.9601" y2="99.5011" gradientUnits="userSpaceOnUse">
<stop stop-color="#414141"/>
<stop offset="1" stop-color="white" stop-opacity="0"/>
</linearGradient>
<linearGradient id="paint6_linear_55_2" x1="10.0931" y1="83.8614" x2="18.7572" y2="89.9116" gradientUnits="userSpaceOnUse">
<stop stop-color="#414141"/>
<stop offset="1" stop-color="white" stop-opacity="0"/>
</linearGradient>
<linearGradient id="paint7_linear_55_2" x1="19.4761" y1="77.6559" x2="19.2339" y2="88.64" gradientUnits="userSpaceOnUse">
<stop stop-color="#414141"/>
<stop offset="1" stop-color="white" stop-opacity="0"/>
</linearGradient>
<linearGradient id="paint8_linear_55_2" x1="5.19553" y1="69.0548" x2="12.1041" y2="77.3752" gradientUnits="userSpaceOnUse">
<stop stop-color="#414141"/>
<stop offset="1" stop-color="white" stop-opacity="0"/>
</linearGradient>
<linearGradient id="paint9_linear_55_2" x1="15.7877" y1="65.7578" x2="12.5089" y2="76.1154" gradientUnits="userSpaceOnUse">
<stop stop-color="#414141"/>
<stop offset="1" stop-color="white" stop-opacity="0"/>
</linearGradient>
<linearGradient id="paint10_linear_55_2" x1="5.20088" y1="53.5108" x2="9.13342" y2="63.7366" gradientUnits="userSpaceOnUse">
<stop stop-color="#414141"/>
<stop offset="1" stop-color="white" stop-opacity="0"/>
</linearGradient>
<linearGradient id="paint11_linear_55_2" x1="16.2625" y1="53.8539" x2="9.95936" y2="62.548" gradientUnits="userSpaceOnUse">
<stop stop-color="#414141"/>
<stop offset="1" stop-color="white" stop-opacity="0"/>
</linearGradient>
<linearGradient id="paint12_linear_55_2" x1="9.08512" y1="39.159" x2="10.8672" y2="49.9774" gradientUnits="userSpaceOnUse">
<stop stop-color="#414141"/>
<stop offset="1" stop-color="white" stop-opacity="0"/>
</linearGradient>
<linearGradient id="paint13_linear_55_2" x1="19.8509" y1="41.7911" x2="11.9992" y2="49.007" gradientUnits="userSpaceOnUse">
<stop stop-color="#414141"/>
<stop offset="1" stop-color="white" stop-opacity="0"/>
</linearGradient>
<linearGradient id="paint14_linear_55_2" x1="17.6401" y1="25.5293" x2="16.2838" y2="36.5318" gradientUnits="userSpaceOnUse">
<stop stop-color="#414141"/>
<stop offset="1" stop-color="white" stop-opacity="0"/>
</linearGradient>
<linearGradient id="paint15_linear_55_2" x1="27.3092" y1="31.2161" x2="17.9338" y2="35.9896" gradientUnits="userSpaceOnUse">
<stop stop-color="#414141"/>
<stop offset="1" stop-color="white" stop-opacity="0"/>
</linearGradient>
<linearGradient id="paint16_linear_55_2" x1="29.4704" y1="14.5146" x2="25.3367" y2="24.6756" gradientUnits="userSpaceOnUse">
<stop stop-color="#414141"/>
<stop offset="1" stop-color="white" stop-opacity="0"/>
</linearGradient>
<linearGradient id="paint17_linear_55_2" x1="37.629" y1="22.502" x2="27.5667" y2="24.9939" gradientUnits="userSpaceOnUse">
<stop stop-color="#414141"/>
<stop offset="1" stop-color="white" stop-opacity="0"/>
</linearGradient>
<linearGradient id="paint18_linear_55_2" x1="45.227" y1="13.669" x2="37.1674" y2="16.3712" gradientUnits="userSpaceOnUse">
<stop stop-color="#414141"/>
<stop offset="1" stop-color="white" stop-opacity="0"/>
</linearGradient>
<linearGradient id="paint19_linear_55_2" x1="104.418" y1="116.981" x2="94.2053" y2="117.255" gradientUnits="userSpaceOnUse">
<stop stop-color="#414141"/>
<stop offset="1" stop-color="white" stop-opacity="0"/>
</linearGradient>
<linearGradient id="paint20_linear_55_2" x1="100.228" y1="105.941" x2="93.7556" y2="114.421" gradientUnits="userSpaceOnUse">
<stop stop-color="#414141"/>
<stop offset="1" stop-color="white" stop-opacity="0"/>
</linearGradient>
<linearGradient id="paint21_linear_55_2" x1="116.428" y1="109.022" x2="106.472" y2="111.431" gradientUnits="userSpaceOnUse">
<stop stop-color="#414141"/>
<stop offset="1" stop-color="white" stop-opacity="0"/>
</linearGradient>
<linearGradient id="paint22_linear_55_2" x1="109.981" y1="99.3452" x2="105.625" y2="109.25" gradientUnits="userSpaceOnUse">
<stop stop-color="#414141"/>
<stop offset="1" stop-color="white" stop-opacity="0"/>
</linearGradient>
<linearGradient id="paint23_linear_55_2" x1="127.206" y1="95.8611" x2="117.78" y2="100.228" gradientUnits="userSpaceOnUse">
<stop stop-color="#414141"/>
<stop offset="1" stop-color="white" stop-opacity="0"/>
</linearGradient>
<linearGradient id="paint24_linear_55_2" x1="119.007" y1="87.8843" x2="116.982" y2="98.6707" gradientUnits="userSpaceOnUse">
<stop stop-color="#414141"/>
<stop offset="1" stop-color="white" stop-opacity="0"/>
</linearGradient>
<linearGradient id="paint25_linear_55_2" x1="135.128" y1="82.1451" x2="126.694" y2="88.5849" gradientUnits="userSpaceOnUse">
<stop stop-color="#414141"/>
<stop offset="1" stop-color="white" stop-opacity="0"/>
</linearGradient>
<linearGradient id="paint26_linear_55_2" x1="125.505" y1="76.3905" x2="126.268" y2="87.3339" gradientUnits="userSpaceOnUse">
<stop stop-color="#414141"/>
<stop offset="1" stop-color="white" stop-opacity="0"/>
</linearGradient>
<linearGradient id="paint27_linear_55_2" x1="139.422" y1="67.1321" x2="132.872" y2="75.7764" gradientUnits="userSpaceOnUse">
<stop stop-color="#414141"/>
<stop offset="1" stop-color="white" stop-opacity="0"/>
</linearGradient>
<linearGradient id="paint28_linear_55_2" x1="128.7" y1="64.3282" x2="132.431" y2="74.5105" gradientUnits="userSpaceOnUse">
<stop stop-color="#414141"/>
<stop offset="1" stop-color="white" stop-opacity="0"/>
</linearGradient>
<linearGradient id="paint29_linear_55_2" x1="138.782" y1="51.6061" x2="135.307" y2="62.0022" gradientUnits="userSpaceOnUse">
<stop stop-color="#414141"/>
<stop offset="1" stop-color="white" stop-opacity="0"/>
</linearGradient>
<linearGradient id="paint30_linear_55_2" x1="127.745" y1="52.4507" x2="134.411" y2="60.8499" gradientUnits="userSpaceOnUse">
<stop stop-color="#414141"/>
<stop offset="1" stop-color="white" stop-opacity="0"/>
</linearGradient>
<linearGradient id="paint31_linear_55_2" x1="134.864" y1="37.1679" x2="133.555" y2="48.0519" gradientUnits="userSpaceOnUse">
<stop stop-color="#414141"/>
<stop offset="1" stop-color="white" stop-opacity="0"/>
</linearGradient>
<linearGradient id="paint32_linear_55_2" x1="124.224" y1="40.2865" x2="132.366" y2="47.1439" gradientUnits="userSpaceOnUse">
<stop stop-color="#414141"/>
<stop offset="1" stop-color="white" stop-opacity="0"/>
</linearGradient>
<linearGradient id="paint33_linear_55_2" x1="125.789" y1="23.9412" x2="127.668" y2="34.859" gradientUnits="userSpaceOnUse">
<stop stop-color="#414141"/>
<stop offset="1" stop-color="white" stop-opacity="0"/>
</linearGradient>
<linearGradient id="paint34_linear_55_2" x1="116.353" y1="30.0703" x2="125.895" y2="34.4346" gradientUnits="userSpaceOnUse">
<stop stop-color="#414141"/>
<stop offset="1" stop-color="white" stop-opacity="0"/>
</linearGradient>
<linearGradient id="paint35_linear_55_2" x1="113.138" y1="12.2232" x2="119.628" y2="20.7533" gradientUnits="userSpaceOnUse">
<stop stop-color="#414141"/>
<stop offset="1" stop-color="white" stop-opacity="0"/>
</linearGradient>
<linearGradient id="paint36_linear_55_2" x1="107.063" y1="22.163" x2="117.313" y2="22.3606" gradientUnits="userSpaceOnUse">
<stop stop-color="#414141"/>
<stop offset="1" stop-color="white" stop-opacity="0"/>
</linearGradient>
<linearGradient id="paint37_linear_55_2" x1="97.4806" y1="15.0358" x2="105.755" y2="16.8214" gradientUnits="userSpaceOnUse">
<stop stop-color="#414141"/>
<stop offset="1" stop-color="white" stop-opacity="0"/>
</linearGradient>
</defs>
</svg>
